<svg width="30" height="23" viewBox="0 0 30 23" fill="none" xmlns="http://www.w3.org/2000/svg">
<g clip-path="url(#clip0_462_15)">
<path d="M0 2.64445V1.875C0 1.37772 0.197544 0.900806 0.549175 0.549175C0.900806 0.197544 1.37772 0 1.875 0L28.125 0C28.6223 0 29.0992 0.197544 29.4508 0.549175C29.8025 0.900806 30 1.37772 30 1.875V2.64445L15 12.0195L0 2.64445ZM15.4969 13.9202C15.3478 14.0133 15.1757 14.0626 15 14.0626C14.8243 14.0626 14.6522 14.0133 14.5031 13.9202L0 4.85555V20.625C0 21.1223 0.197544 21.5992 0.549175 21.9508C0.900806 22.3025 1.37772 22.5 1.875 22.5H28.125C28.6223 22.5 29.0992 22.3025 29.4508 21.9508C29.8025 21.5992 30 21.1223 30 20.625V4.85555L15.4969 13.9202Z" fill="white"/>
</g>
<defs>
<clipPath id="clip0_462_15">
<rect width="30" height="22.5" fill="white"/>
</clipPath>
</defs>
</svg>
