<svg width="24" height="24" viewBox="0 0 24 24" fill="none" xmlns="http://www.w3.org/2000/svg">
<path d="M16.547 11.195C16.547 11.47 16.772 11.695 17.047 11.695C17.322 11.695 17.547 11.47 17.547 11.195C17.547 8.39 15.267 6.11 12.462 6.11C12.187 6.11 11.962 6.335 11.962 6.61C11.962 6.89 12.187 7.11 12.462 7.11C14.717 7.11 16.547 8.945 16.547 11.195ZM12.462 0C12.187 0 11.962 0.225 11.962 0.5C11.962 0.775 12.187 1 12.462 1C18.087 1 22.662 5.575 22.662 11.195C22.662 11.47 22.882 11.695 23.162 11.695C23.437 11.695 23.662 11.47 23.662 11.195C23.662 5.02 18.637 0 12.462 0ZM17.347 16.465L16.692 16.82C15.587 17.425 14.187 17.22 13.292 16.325L8.01201 11.045C7.11701 10.15 6.91201 8.75 7.51701 7.64L7.87201 6.99C8.27201 6.25 8.41701 5.42 8.29701 4.59C8.18366 3.76168 7.80058 2.99376 7.20701 2.405C6.47701 1.675 5.50701 1.275 4.47201 1.275C3.43701 1.275 2.46201 1.675 1.73201 2.405L1.47701 2.665C0.127009 4.015 -0.0279912 6.34 1.03701 9.22C2.04201 11.97 4.06701 14.95 6.72701 17.61C10.782 21.665 15.297 24 18.537 24C19.817 24 20.902 23.635 21.672 22.865L21.932 22.605C22.2921 22.2453 22.5776 21.8182 22.7724 21.348C22.9672 20.8779 23.0673 20.3739 23.067 19.865C23.06 18.8402 22.6527 17.8587 21.932 17.13C20.727 15.925 18.842 15.655 17.347 16.465Z" fill="white"/>
</svg>
