<svg width="54" height="59" viewBox="0 0 54 59" fill="none" xmlns="http://www.w3.org/2000/svg">
<path d="M50.5472 23.7736C50.5472 36.9034 39.9034 47.5472 26.7736 47.5472C13.6438 47.5472 3 36.9034 3 23.7736C3 10.6438 13.6438 0 26.7736 0C39.9034 0 50.5472 10.6438 50.5472 23.7736Z" fill="white"/>
<mask id="mask0_26_75" style="mask-type:alpha" maskUnits="userSpaceOnUse" x="3" y="0" width="48" height="48">
<path d="M50.5472 23.7736C50.5472 36.9034 39.9034 47.5472 26.7736 47.5472C13.6438 47.5472 3 36.9034 3 23.7736C3 10.6438 13.6438 0 26.7736 0C39.9034 0 50.5472 10.6438 50.5472 23.7736Z" fill="white"/>
</mask>
<g mask="url(#mask0_26_75)">
<path d="M19.5849 33.7082C19.5849 35.4894 17.4672 36.9333 14.8548 36.9333C12.2424 36.9333 10.3396 35.4894 10.3396 33.7082C10.3396 31.927 12.2424 30.6981 14.8548 30.6981C17.4672 30.6981 19.5849 31.927 19.5849 33.7082Z" fill="#000244"/>
<path d="M19.5849 23.1422C19.5849 24.9233 17.4672 26.3673 14.8548 26.3673C12.2424 26.3673 10.3396 24.9233 10.3396 23.1422C10.3396 21.361 12.2424 20.1321 14.8548 20.1321C17.4672 20.1321 19.5849 21.361 19.5849 23.1422Z" fill="#000244"/>
<path d="M31.4717 33.7082C31.4717 35.4894 29.354 36.9333 26.7416 36.9333C24.1292 36.9333 22.2264 35.4894 22.2264 33.7082C22.2264 31.927 24.1292 30.6981 26.7416 30.6981C29.354 30.6981 31.4717 31.927 31.4717 33.7082Z" fill="#000244"/>
<path d="M31.4717 23.1422C31.4717 24.9233 29.354 26.3673 26.7416 26.3673C24.1292 26.3673 22.2264 24.9233 22.2264 23.1422C22.2264 21.361 24.1292 20.1321 26.7416 20.1321C29.354 20.1321 31.4717 21.361 31.4717 23.1422Z" fill="#000244"/>
<path d="M31.4717 12.5761C31.4717 14.3573 29.354 15.8012 26.7416 15.8012C24.1292 15.8012 22.2264 14.3573 22.2264 12.5761C22.2264 10.7949 24.1292 9.56602 26.7416 9.56602C29.354 9.56602 31.4717 10.7949 31.4717 12.5761Z" fill="#000244"/>
<path d="M43.3585 12.5761C43.3585 14.3573 41.2407 15.8012 38.6284 15.8012C36.016 15.8012 34.1132 14.3573 34.1132 12.5761C34.1132 10.7949 36.016 9.56602 38.6284 9.56602C41.2407 9.56602 43.3585 10.7949 43.3585 12.5761Z" fill="#000244"/>
<path d="M43.3585 23.1421C43.3585 24.9233 41.2408 26.3672 38.6284 26.3672C36.016 26.3672 34.1132 24.9233 34.1132 23.1421C34.1132 21.361 36.016 20.1321 38.6284 20.1321C41.2408 20.1321 43.3585 21.361 43.3585 23.1421Z" fill="#000244"/>
<line x1="14.8019" y1="0.320747" x2="14.8019" y2="45.2264" stroke="#000244"/>
<path d="M26.8491 -1L26.8491 47.8679" stroke="#000244"/>
<line x1="38.5755" y1="0.320747" x2="38.5755" y2="45.2264" stroke="#000244"/>
</g>
<path d="M4.71227 58.0912C4.46027 58.2966 4.16627 58.4692 3.83027 58.6092C3.50361 58.7492 3.12094 58.8192 2.68227 58.8192C1.98227 58.8192 1.43161 58.6232 1.03027 58.2312C0.638273 57.8392 0.442273 57.3539 0.442273 56.7752C0.442273 56.2246 0.614939 55.7439 0.960273 55.3332C1.31494 54.9226 1.81427 54.6052 2.45827 54.3812C3.10227 54.1479 3.86294 54.0312 4.74027 54.0312H4.83827C4.87561 54.0312 4.91761 54.0219 4.96427 54.0032C5.02027 53.9752 5.04827 53.9192 5.04827 53.8352V53.5972C5.04827 53.3359 4.97827 53.1352 4.83827 52.9952C4.70761 52.8552 4.50227 52.7852 4.22227 52.7852C4.02627 52.7852 3.82561 52.8319 3.62027 52.9252C3.41494 53.0092 3.25161 53.1819 3.13027 53.4432C3.09294 53.5179 3.05094 53.5692 3.00427 53.5972C2.96694 53.6159 2.88294 53.6159 2.75227 53.5972L0.918273 53.2332C0.852939 53.2146 0.801606 53.1819 0.764273 53.1352C0.736273 53.0792 0.754939 52.9626 0.820273 52.7852C1.03494 52.1879 1.44561 51.7632 2.05227 51.5112C2.66827 51.2499 3.43361 51.1192 4.34827 51.1192C5.21627 51.1192 5.89294 51.2172 6.37827 51.4132C6.86361 51.6092 7.20427 51.8799 7.40027 52.2252C7.60561 52.5706 7.70827 52.9719 7.70827 53.4292V58.3012C7.70827 58.4412 7.68494 58.5392 7.63827 58.5952C7.60094 58.6512 7.51694 58.6792 7.38627 58.6792H5.46827C5.34694 58.6792 5.25827 58.6326 5.20227 58.5392C5.15561 58.4366 5.12294 58.3199 5.10427 58.1892L5.09027 58.0912C5.06227 57.9046 4.93627 57.9046 4.71227 58.0912ZM5.04827 55.5432C5.04827 55.3752 4.97827 55.2912 4.83827 55.2912H4.78227C4.67027 55.2912 4.52094 55.3146 4.33427 55.3612C4.15694 55.3986 3.97961 55.4639 3.80227 55.5572C3.62494 55.6412 3.47094 55.7532 3.34027 55.8932C3.21894 56.0332 3.15827 56.2012 3.15827 56.3972C3.15827 56.5932 3.22827 56.7519 3.36827 56.8732C3.50827 56.9946 3.70427 57.0552 3.95627 57.0552C4.14294 57.0552 4.29694 57.0272 4.41827 56.9712C4.54894 56.9152 4.65161 56.8546 4.72627 56.7892C4.81027 56.7146 4.88494 56.6399 4.95027 56.5652C5.01561 56.4812 5.04827 56.3879 5.04827 56.2852V55.5432ZM10.2877 58.6792C10.1383 58.6792 10.0357 58.6512 9.97966 58.5952C9.933 58.5392 9.90966 58.4506 9.90966 58.3292V48.6132C9.90966 48.3986 9.99833 48.2912 10.1757 48.2912H12.4577C12.6257 48.2912 12.7097 48.3892 12.7097 48.5852V51.7352C12.7097 51.8472 12.7377 51.9079 12.7937 51.9172C12.8497 51.9266 12.9103 51.9032 12.9757 51.8472C13.1717 51.6606 13.363 51.5159 13.5497 51.4132C13.7457 51.3106 13.9417 51.2359 14.1377 51.1892C14.343 51.1426 14.5483 51.1192 14.7537 51.1192C15.3603 51.1192 15.8783 51.2732 16.3077 51.5812C16.737 51.8892 17.0637 52.3279 17.2877 52.8972C17.521 53.4572 17.6377 54.1292 17.6377 54.9132C17.6377 56.0986 17.3623 57.0459 16.8117 57.7552C16.2703 58.4646 15.4863 58.8192 14.4597 58.8192C14.1703 58.8192 13.8903 58.7726 13.6197 58.6792C13.3583 58.5859 13.1157 58.4506 12.8917 58.2732C12.6677 58.0959 12.4623 57.8906 12.2757 57.6572C12.2383 57.6106 12.201 57.5919 12.1637 57.6012C12.1357 57.6106 12.1123 57.6432 12.0937 57.6992L11.8697 58.3572C11.8043 58.5719 11.683 58.6792 11.5057 58.6792H10.2877ZM12.7097 56.0892C12.7097 56.3226 12.7517 56.5232 12.8357 56.6912C12.9197 56.8499 13.0363 56.9712 13.1857 57.0552C13.335 57.1392 13.5077 57.1812 13.7037 57.1812C13.9463 57.1812 14.147 57.1112 14.3057 56.9712C14.4737 56.8312 14.5997 56.5979 14.6837 56.2712C14.7677 55.9446 14.8097 55.5106 14.8097 54.9692C14.8097 54.1572 14.7163 53.5972 14.5297 53.2892C14.3523 52.9812 14.091 52.8272 13.7457 52.8272C13.531 52.8272 13.3397 52.8786 13.1717 52.9812C13.0037 53.0746 12.8497 53.2099 12.7097 53.3872V56.0892ZM23.3246 58.0912C23.0726 58.2966 22.7786 58.4692 22.4426 58.6092C22.1159 58.7492 21.7333 58.8192 21.2946 58.8192C20.5946 58.8192 20.0439 58.6232 19.6426 58.2312C19.2506 57.8392 19.0546 57.3539 19.0546 56.7752C19.0546 56.2246 19.2273 55.7439 19.5726 55.3332C19.9273 54.9226 20.4266 54.6052 21.0706 54.3812C21.7146 54.1479 22.4753 54.0312 23.3526 54.0312H23.4506C23.4879 54.0312 23.5299 54.0219 23.5766 54.0032C23.6326 53.9752 23.6606 53.9192 23.6606 53.8352V53.5972C23.6606 53.3359 23.5906 53.1352 23.4506 52.9952C23.3199 52.8552 23.1146 52.7852 22.8346 52.7852C22.6386 52.7852 22.4379 52.8319 22.2326 52.9252C22.0273 53.0092 21.8639 53.1819 21.7426 53.4432C21.7053 53.5179 21.6633 53.5692 21.6166 53.5972C21.5793 53.6159 21.4953 53.6159 21.3646 53.5972L19.5306 53.2332C19.4653 53.2146 19.4139 53.1819 19.3766 53.1352C19.3486 53.0792 19.3673 52.9626 19.4326 52.7852C19.6473 52.1879 20.0579 51.7632 20.6646 51.5112C21.2806 51.2499 22.0459 51.1192 22.9606 51.1192C23.8286 51.1192 24.5053 51.2172 24.9906 51.4132C25.4759 51.6092 25.8166 51.8799 26.0126 52.2252C26.2179 52.5706 26.3206 52.9719 26.3206 53.4292V58.3012C26.3206 58.4412 26.2973 58.5392 26.2506 58.5952C26.2133 58.6512 26.1293 58.6792 25.9986 58.6792H24.0806C23.9593 58.6792 23.8706 58.6326 23.8146 58.5392C23.7679 58.4366 23.7353 58.3199 23.7166 58.1892L23.7026 58.0912C23.6746 57.9046 23.5486 57.9046 23.3246 58.0912ZM23.6606 55.5432C23.6606 55.3752 23.5906 55.2912 23.4506 55.2912H23.3946C23.2826 55.2912 23.1333 55.3146 22.9466 55.3612C22.7693 55.3986 22.5919 55.4639 22.4146 55.5572C22.2373 55.6412 22.0833 55.7532 21.9526 55.8932C21.8313 56.0332 21.7706 56.2012 21.7706 56.3972C21.7706 56.5932 21.8406 56.7519 21.9806 56.8732C22.1206 56.9946 22.3166 57.0552 22.5686 57.0552C22.7553 57.0552 22.9093 57.0272 23.0306 56.9712C23.1613 56.9152 23.2639 56.8546 23.3386 56.7892C23.4226 56.7146 23.4973 56.6399 23.5626 56.5652C23.6279 56.4812 23.6606 56.3879 23.6606 56.2852V55.5432ZM32.12 51.1192C32.792 51.1192 33.3613 51.2452 33.828 51.4972C34.2947 51.7399 34.6633 52.0432 34.934 52.4072C35.2047 52.7712 35.3773 53.1352 35.452 53.4992C35.5173 53.7326 35.4333 53.8539 35.2 53.8632L33.282 53.9612C33.1513 53.9706 33.072 53.9052 33.044 53.7652C33.0253 53.6439 32.9927 53.5179 32.946 53.3872C32.8993 53.2472 32.8153 53.1306 32.694 53.0372C32.582 52.9346 32.414 52.8832 32.19 52.8832C31.966 52.8832 31.77 52.9532 31.602 53.0932C31.434 53.2332 31.3033 53.4572 31.21 53.7652C31.1167 54.0639 31.07 54.4652 31.07 54.9692C31.07 55.4826 31.1213 55.8979 31.224 56.2152C31.3267 56.5232 31.4713 56.7472 31.658 56.8872C31.854 57.0179 32.0827 57.0832 32.344 57.0832C32.7267 57.0832 33.0067 56.9806 33.184 56.7752C33.3707 56.5606 33.5527 56.2946 33.73 55.9772C33.7487 55.9399 33.7767 55.9166 33.814 55.9072C33.8513 55.8886 33.9167 55.8886 34.01 55.9072L35.326 56.1592C35.4567 56.1872 35.4987 56.2946 35.452 56.4812C35.4147 56.6586 35.326 56.8826 35.186 57.1532C35.046 57.4146 34.8453 57.6712 34.584 57.9232C34.3227 58.1752 33.9867 58.3899 33.576 58.5672C33.1747 58.7352 32.6893 58.8192 32.12 58.8192C31.3733 58.8192 30.706 58.6606 30.118 58.3432C29.5393 58.0166 29.082 57.5686 28.746 56.9992C28.41 56.4206 28.242 55.7532 28.242 54.9972C28.242 54.2226 28.41 53.5459 28.746 52.9672C29.0913 52.3886 29.5533 51.9359 30.132 51.6092C30.72 51.2826 31.3827 51.1192 32.12 51.1192ZM40.6973 56.8592C40.912 56.8592 41.108 56.8032 41.2853 56.6912C41.472 56.5792 41.626 56.4439 41.7473 56.2852V51.6652C41.7473 51.3946 41.9013 51.2592 42.2093 51.2592H44.2113C44.454 51.2592 44.5753 51.3806 44.5753 51.6232L44.5193 58.3712C44.5193 58.5766 44.4306 58.6792 44.2533 58.6792H42.0413C41.8733 58.6792 41.7893 58.5859 41.7893 58.3992V57.7832C41.7893 57.7272 41.7706 57.6946 41.7333 57.6852C41.7053 57.6666 41.668 57.6806 41.6213 57.7272C41.304 58.1006 40.954 58.3759 40.5713 58.5532C40.1886 58.7306 39.764 58.8192 39.2973 58.8192C38.896 58.8192 38.5366 58.7306 38.2193 58.5532C37.9113 58.3666 37.664 58.1006 37.4773 57.7552C37.3 57.4006 37.2113 56.9759 37.2113 56.4812V51.6792C37.2113 51.3992 37.356 51.2592 37.6453 51.2592H39.6893C39.904 51.2592 40.0113 51.3806 40.0113 51.6232V56.1732C40.0113 56.3879 40.072 56.5559 40.1933 56.6772C40.324 56.7986 40.492 56.8592 40.6973 56.8592ZM51.3175 53.3872C51.1775 53.2286 50.9955 53.0839 50.7715 52.9532C50.5475 52.8132 50.2628 52.7432 49.9175 52.7432C49.6748 52.7432 49.4648 52.7852 49.2875 52.8692C49.1102 52.9532 49.0215 53.0746 49.0215 53.2332C49.0215 53.2986 49.0495 53.3639 49.1055 53.4292C49.1708 53.4946 49.3295 53.5506 49.5815 53.5972L51.0655 53.9052C51.9335 54.0826 52.5402 54.3906 52.8855 54.8292C53.2402 55.2679 53.4175 55.7579 53.4175 56.2992C53.4175 56.8406 53.2682 57.2979 52.9695 57.6712C52.6708 58.0446 52.2555 58.3292 51.7235 58.5252C51.1915 58.7212 50.5755 58.8192 49.8755 58.8192C48.9795 58.8192 48.2328 58.6699 47.6355 58.3712C47.0382 58.0726 46.6228 57.7132 46.3895 57.2932C46.3428 57.2092 46.3195 57.1299 46.3195 57.0552C46.3195 56.9806 46.3522 56.9246 46.4175 56.8872L47.6355 56.2712C47.7568 56.2152 47.8455 56.1919 47.9015 56.2012C47.9668 56.2106 48.0228 56.2432 48.0695 56.2992C48.1815 56.4206 48.3028 56.5466 48.4335 56.6772C48.5735 56.7986 48.7555 56.9012 48.9795 56.9852C49.2128 57.0692 49.5162 57.1066 49.8895 57.0972C50.0855 57.0879 50.2628 57.0692 50.4215 57.0412C50.5802 57.0039 50.7062 56.9479 50.7995 56.8732C50.8928 56.7986 50.9395 56.7052 50.9395 56.5932C50.9395 56.4999 50.8975 56.4159 50.8135 56.3412C50.7388 56.2666 50.5662 56.2059 50.2955 56.1592L48.8675 55.9072C48.1582 55.7766 47.6028 55.5339 47.2015 55.1792C46.8002 54.8152 46.5948 54.3159 46.5855 53.6812C46.5855 53.1959 46.7115 52.7619 46.9635 52.3792C47.2248 51.9872 47.6075 51.6792 48.1115 51.4552C48.6155 51.2312 49.2268 51.1192 49.9455 51.1192C50.7108 51.1192 51.3595 51.2592 51.8915 51.5392C52.4328 51.8099 52.8062 52.1179 53.0115 52.4632C53.0582 52.5286 53.0955 52.6032 53.1235 52.6872C53.1515 52.7712 53.1142 52.8366 53.0115 52.8832L51.7235 53.4992C51.6395 53.5366 51.5648 53.5459 51.4995 53.5272C51.4342 53.4992 51.3735 53.4526 51.3175 53.3872Z" fill="white"/>
</svg>
