<svg xmlns="http://www.w3.org/2000/svg" width="20" height="18" viewBox="0 0 20 18" fill="none">
  <path d="M17.4582 9.48461C17.2382 9.48461 17.0082 9.42442 16.7882 9.38142C16.3427 9.29699 15.9048 9.1849 15.4782 9.04603C15.0143 8.9009 14.5043 8.90844 14.0465 9.06719C13.5886 9.22596 13.2153 9.52472 12.9982 9.90599L12.7782 10.293C11.8042 9.82703 10.9092 9.24832 10.1182 8.57306C9.33294 7.89284 8.65999 7.12316 8.11817 6.28556L8.53817 6.04477C8.98153 5.85809 9.32895 5.53699 9.51356 5.14327C9.69817 4.74954 9.70694 4.31102 9.53817 3.91207C9.37939 3.54437 9.2491 3.16803 9.14817 2.78552C9.09817 2.59633 9.05817 2.39854 9.02817 2.20075C8.90673 1.59501 8.53779 1.04646 7.98779 0.653885C7.43779 0.261311 6.74286 0.0505105 6.02817 0.0594465H3.02817C2.5972 0.0559666 2.17042 0.132383 1.77688 0.283492C1.38334 0.434602 1.03228 0.656858 0.747598 0.935129C0.462918 1.2134 0.251302 1.54115 0.127155 1.89608C0.00300869 2.251 -0.0307535 2.62476 0.0281672 2.99191C0.560905 6.59461 2.4742 9.94201 5.46582 12.5053C8.45744 15.0687 12.3569 16.7018 16.5482 17.1469H16.9282C17.6656 17.1478 18.3776 16.9151 18.9282 16.4933C19.2445 16.25 19.4973 15.9517 19.6696 15.6181C19.842 15.2846 19.9301 14.9234 19.9282 14.5584V11.9785C19.9159 11.3812 19.663 10.806 19.2125 10.3512C18.762 9.89635 18.142 9.59007 17.4582 9.48461ZM17.9582 14.6444C17.958 14.7665 17.9276 14.8871 17.8689 14.9984C17.8103 15.1096 17.7248 15.2088 17.6182 15.2893C17.5064 15.3723 17.3758 15.4343 17.2346 15.4713C17.0934 15.5083 16.9447 15.5196 16.7982 15.5043C13.0531 15.0914 9.5744 13.618 6.91088 11.3166C4.24736 9.01516 2.55058 6.01668 2.08817 2.79412C2.07225 2.66815 2.0862 2.54072 2.12917 2.41951C2.17214 2.29831 2.24324 2.18586 2.33817 2.08895C2.43188 1.99722 2.54723 1.9237 2.67655 1.87329C2.80586 1.82288 2.94618 1.79672 3.08817 1.79657H6.08817C6.32071 1.79212 6.54779 1.85752 6.73031 1.98152C6.91283 2.10552 7.03938 2.28035 7.08817 2.47594C7.12817 2.71099 7.17817 2.94318 7.23817 3.1725C7.35369 3.62583 7.50743 4.07132 7.69817 4.50544L6.29817 5.06442C6.17846 5.11165 6.07079 5.17875 5.98132 5.26186C5.89186 5.34497 5.82237 5.44247 5.77684 5.54874C5.73131 5.65502 5.71064 5.76798 5.71601 5.88114C5.72139 5.9943 5.75271 6.10544 5.80817 6.20816C7.24737 8.85921 9.72541 10.9902 12.8082 12.2279C13.0516 12.3139 13.3247 12.3139 13.5682 12.2279C13.6929 12.1895 13.8075 12.1302 13.9053 12.0535C14.0032 11.9767 14.0823 11.884 14.1382 11.7807L14.7582 10.5768C15.2751 10.7358 15.8028 10.8679 16.3382 10.9723C16.6048 11.0239 16.8748 11.0669 17.1482 11.1013C17.3756 11.1433 17.5789 11.2521 17.7231 11.4091C17.8673 11.566 17.9433 11.7613 17.9382 11.9613L17.9582 14.6444Z" fill="white"/>
</svg>