<svg width="40" height="31" viewBox="0 0 40 31" fill="none" xmlns="http://www.w3.org/2000/svg">
<path d="M0 8.45906C0 8.87508 0 9.41821 0 10.0885C0 10.7587 0.143229 11.9837 0.429688 13.7633C0.716146 15.5429 1.14583 17.2301 1.71875 18.8249C2.29167 20.4196 3.24219 22.1415 4.57031 23.9904C5.89844 25.8394 7.47396 27.3648 9.29688 28.5667C11.7448 30.1845 12.9688 30.8548 12.9688 30.5774C12.9688 30.485 12.2656 29.2831 10.8594 26.9719C8.56771 23.2277 7.10938 19.7147 6.48438 16.4328C7.47396 16.7563 8.48958 16.9181 9.53125 16.9181C12.1354 16.9181 14.375 16.0861 16.25 14.422C18.125 12.7579 19.0625 10.7587 19.0625 8.42439C19.0625 6.09006 18.125 4.10241 16.25 2.46145C14.375 0.820482 12.1354 0 9.53125 0C6.92708 0 4.6875 0.820482 2.8125 2.46145C0.9375 4.10241 0 6.10162 0 8.45906ZM20.9375 8.45906C20.9375 8.87508 20.9375 9.41821 20.9375 10.0885C20.9375 10.7587 21.0938 11.9837 21.4063 13.7633C21.7188 15.5429 22.1484 17.2301 22.6953 18.8249C23.2422 20.4196 24.1797 22.1415 25.5078 23.9904C26.8359 25.8394 28.4115 27.3648 30.2344 28.5667C32.6823 30.1845 33.9323 30.8548 33.9844 30.5774C33.9844 30.485 33.2552 29.2831 31.7969 26.9719C29.5052 23.2277 28.0469 19.7147 27.4219 16.4328C28.4115 16.7563 29.4271 16.9181 30.4688 16.9181C33.125 16.9181 35.3776 16.0861 37.2266 14.422C39.0755 12.7579 40 10.7587 40 8.42439C40 6.09006 39.0755 4.10241 37.2266 2.46145C35.3776 0.820482 33.138 0 30.5078 0C27.8776 0 25.625 0.820482 23.75 2.46145C21.875 4.10241 20.9375 6.10162 20.9375 8.45906Z" fill="white"/>
</svg>
