<svg xmlns="http://www.w3.org/2000/svg" width="32" height="34" viewBox="0 0 32 34" fill="none">
  <path d="M31 1L29.3334 2.66459" stroke="white" stroke-width="2" stroke-linecap="round" stroke-linejoin="round"/>
  <path d="M1 1L2.66667 2.66459" stroke="white" stroke-width="2" stroke-linecap="round" stroke-linejoin="round"/>
  <path d="M31 24.3042L29.3334 22.6396" stroke="white" stroke-width="2" stroke-linecap="round" stroke-linejoin="round"/>
  <path d="M1 24.3042L2.66667 22.6396" stroke="white" stroke-width="2" stroke-linecap="round" stroke-linejoin="round"/>
  <path d="M11 27.6333H21" stroke="white" stroke-width="2" stroke-linecap="round" stroke-linejoin="round"/>
  <path d="M12.6666 32.6272H19.3333" stroke="white" stroke-width="2" stroke-linecap="round" stroke-linejoin="round"/>
  <path d="M15.9997 2.66455C9.33287 2.66455 5.9198 5.91098 5.99979 10.9875C6.03877 13.4625 6.83287 15.149 8.49979 16.8135C10.1667 18.4781 11 19.3104 10.9998 22.6396H20.9997C21 19.3106 21.8334 18.4781 23.4995 16.8137C25.166 15.1491 25.9609 13.4625 25.9997 10.9875C26.0797 5.91098 22.6667 2.66455 15.9997 2.66455Z" stroke="white" stroke-width="2" stroke-linecap="round" stroke-linejoin="round"/>
</svg>