<svg width="35" height="35" viewBox="0 0 35 35" fill="none" xmlns="http://www.w3.org/2000/svg">
<circle cx="17.5" cy="17.5" r="17.5" fill="white"/>
<path d="M22.806 12.114C22.5924 12.114 22.3836 12.1773 22.206 12.296C22.0284 12.4147 21.89 12.5834 21.8082 12.7807C21.7265 12.978 21.7051 13.1952 21.7468 13.4047C21.7884 13.6142 21.8913 13.8066 22.0423 13.9577C22.1934 14.1087 22.3858 14.2116 22.5953 14.2532C22.8048 14.2949 23.022 14.2735 23.2193 14.1918C23.4166 14.11 23.5853 13.9716 23.704 13.794C23.8227 13.6164 23.886 13.4076 23.886 13.194C23.886 12.9076 23.7722 12.6329 23.5697 12.4303C23.3671 12.2278 23.0924 12.114 22.806 12.114ZM26.946 14.292C26.9285 13.5453 26.7886 12.8065 26.532 12.105C26.3032 11.5048 25.947 10.9614 25.488 10.512C25.0423 10.0507 24.4976 9.69676 23.895 9.477C23.1954 9.21254 22.4558 9.06949 21.708 9.054C20.754 9 20.448 9 18 9C15.552 9 15.246 9 14.292 9.054C13.5442 9.06949 12.8046 9.21254 12.105 9.477C11.5035 9.69898 10.9592 10.0526 10.512 10.512C10.0507 10.9577 9.69676 11.5024 9.477 12.105C9.21254 12.8046 9.06949 13.5442 9.054 14.292C9 15.246 9 15.552 9 18C9 20.448 9 20.754 9.054 21.708C9.06949 22.4558 9.21254 23.1954 9.477 23.895C9.69676 24.4976 10.0507 25.0423 10.512 25.488C10.9592 25.9474 11.5035 26.301 12.105 26.523C12.8046 26.7875 13.5442 26.9305 14.292 26.946C15.246 27 15.552 27 18 27C20.448 27 20.754 27 21.708 26.946C22.4558 26.9305 23.1954 26.7875 23.895 26.523C24.4976 26.3032 25.0423 25.9493 25.488 25.488C25.949 25.0403 26.3055 24.4964 26.532 23.895C26.7886 23.1935 26.9285 22.4547 26.946 21.708C26.946 20.754 27 20.448 27 18C27 15.552 27 15.246 26.946 14.292ZM25.326 21.6C25.3194 22.1713 25.216 22.7373 25.02 23.274C24.8763 23.6657 24.6455 24.0196 24.345 24.309C24.0531 24.6065 23.6999 24.8368 23.31 24.984C22.7733 25.18 22.2073 25.2834 21.636 25.29C20.736 25.335 20.403 25.344 18.036 25.344C15.669 25.344 15.336 25.344 14.436 25.29C13.8428 25.3011 13.2521 25.2098 12.69 25.02C12.3172 24.8653 11.9802 24.6355 11.7 24.345C11.4013 24.0559 11.1734 23.7017 11.034 23.31C10.8143 22.7656 10.6924 22.1867 10.674 21.6C10.674 20.7 10.62 20.367 10.62 18C10.62 15.633 10.62 15.3 10.674 14.4C10.678 13.8159 10.7847 13.2372 10.989 12.69C11.1474 12.3101 11.3906 11.9715 11.7 11.7C11.9734 11.3906 12.3114 11.1448 12.69 10.98C13.2386 10.782 13.8168 10.6786 14.4 10.674C15.3 10.674 15.633 10.62 18 10.62C20.367 10.62 20.7 10.62 21.6 10.674C22.1713 10.6806 22.7373 10.784 23.274 10.98C23.683 11.1318 24.0501 11.3786 24.345 11.7C24.6399 11.9765 24.8704 12.3145 25.02 12.69C25.22 13.238 25.3236 13.8166 25.326 14.4C25.371 15.3 25.38 15.633 25.38 18C25.38 20.367 25.371 20.7 25.326 21.6ZM18 13.383C17.0872 13.3848 16.1955 13.6571 15.4374 14.1655C14.6793 14.6739 14.0889 15.3956 13.7409 16.2394C13.3928 17.0832 13.3027 18.0112 13.4818 18.9062C13.661 19.8013 14.1014 20.6231 14.7475 21.2679C15.3935 21.9127 16.2162 22.3515 17.1116 22.5289C18.0069 22.7064 18.9348 22.6144 19.7779 22.2647C20.621 21.915 21.3416 21.3232 21.8485 20.5641C22.3554 19.8051 22.626 18.9128 22.626 18C22.6272 17.3926 22.5083 16.7909 22.2761 16.2297C22.0439 15.6684 21.7031 15.1585 21.2732 14.7294C20.8433 14.3004 20.3328 13.9605 19.771 13.7294C19.2093 13.4984 18.6074 13.3806 18 13.383ZM18 20.997C17.4072 20.997 16.8278 20.8212 16.335 20.4919C15.8421 20.1626 15.458 19.6945 15.2311 19.1469C15.0043 18.5993 14.9449 17.9967 15.0606 17.4153C15.1762 16.834 15.4617 16.2999 15.8808 15.8808C16.2999 15.4617 16.834 15.1762 17.4153 15.0606C17.9967 14.9449 18.5993 15.0043 19.1469 15.2311C19.6945 15.458 20.1626 15.8421 20.4919 16.335C20.8212 16.8278 20.997 17.4072 20.997 18C20.997 18.3936 20.9195 18.7833 20.7689 19.1469C20.6183 19.5105 20.3975 19.8409 20.1192 20.1192C19.8409 20.3975 19.5105 20.6183 19.1469 20.7689C18.7833 20.9195 18.3936 20.997 18 20.997Z" fill="#000244"/>
</svg>
