<svg xmlns="http://www.w3.org/2000/svg" width="30" height="30" viewBox="0 0 30 30" fill="none">
  <circle cx="15" cy="15" r="15" fill="white"/>
  <path fill-rule="evenodd" clip-rule="evenodd" d="M16.2176 13.0156C17.2284 11.8534 18.3716 11.2639 19.8171 11.335C22.1688 11.4506 23.8239 13.0878 23.9429 15.6436C24.0474 17.8947 23.9733 20.1537 23.9893 22.4088C23.9933 22.9499 23.7398 23.1521 23.2205 23.139C22.5249 23.1215 21.8266 23.1054 21.1327 23.1459C20.4442 23.1862 20.1823 22.9098 20.1941 22.226C20.2213 20.695 20.2045 19.1629 20.2016 17.6313C20.2006 17.214 20.2058 16.7946 20.1732 16.3792C20.0726 15.0935 19.3182 14.3175 18.1997 14.3262C17.0501 14.3351 16.12 15.259 16.0997 16.4882C16.07 18.2978 16.0879 20.108 16.0841 21.918C16.0814 23.1299 16.0804 23.1299 14.8839 23.1378C12.2964 23.1544 12.2974 23.1544 12.2964 20.5663C12.2954 17.921 12.3147 15.275 12.2761 12.6303C12.265 11.8645 12.5211 11.5578 13.2847 11.6293C13.7263 11.6708 14.175 11.634 14.6208 11.6358C15.9508 11.6417 15.9508 11.6424 16.2176 13.0156ZM6.2702 17.3387C6.2702 15.7522 6.29931 14.1649 6.2574 12.5797C6.23813 11.8383 6.52121 11.5817 7.23587 11.6257C7.92914 11.6682 8.62749 11.6496 9.32273 11.6348C9.84501 11.624 10.0811 11.8366 10.0792 12.3759C10.0668 15.7159 10.0651 19.0554 10.0716 22.3954C10.0725 22.9301 9.84136 23.1504 9.31556 23.1393C8.56449 23.1233 7.812 23.1174 7.06149 23.1423C6.48535 23.1615 6.26893 22.9153 6.27512 22.3483C6.2934 20.6785 6.28159 19.0083 6.28159 17.3386C6.27807 17.3387 6.27413 17.3387 6.2702 17.3387ZM8.13502 9.97911C6.91327 9.97391 6.00835 9.13255 6.00006 7.99406C5.99162 6.87497 6.92565 6.00084 8.1301 6C9.44072 5.9993 10.3283 6.80704 10.3231 7.99546C10.3175 9.20568 9.4583 9.98432 8.13502 9.97911Z" fill="#000244"/>
</svg>