<svg xmlns="http://www.w3.org/2000/svg" width="30" height="30" viewBox="0 0 30 30" fill="none">
  <circle cx="15" cy="15" r="15" fill="white"/>
  <path d="M24 8.9506C23.3235 9.2767 22.6081 9.49226 21.876 9.5906C22.6484 9.07792 23.2271 8.27138 23.505 7.3206C22.7792 7.80066 21.9847 8.1389 21.156 8.3206C20.6021 7.65317 19.8645 7.2089 19.0588 7.05745C18.2532 6.90601 17.4251 7.05596 16.7044 7.48379C15.9837 7.91162 15.4112 8.59313 15.0767 9.42144C14.7422 10.2497 14.6646 11.178 14.856 12.0606C13.3885 11.9781 11.953 11.5536 10.6428 10.8145C9.33258 10.0754 8.17696 9.03829 7.251 7.7706C6.92622 8.40077 6.75557 9.11442 6.756 9.8406C6.75485 10.515 6.9038 11.1792 7.18958 11.7742C7.47536 12.3691 7.88912 12.8763 8.394 13.2506C7.80718 13.2329 7.2329 13.0579 6.72 12.7406V12.7906C6.7244 13.7355 7.02239 14.6497 7.56358 15.3786C8.10477 16.1074 8.85593 16.6062 9.69 16.7906C9.36893 16.8992 9.03559 16.9564 8.7 16.9606C8.4677 16.9576 8.23598 16.9342 8.007 16.8906C8.24452 17.7034 8.70416 18.4137 9.32197 18.9228C9.93977 19.4318 10.685 19.7142 11.454 19.7306C10.1555 20.8659 8.55229 21.4855 6.9 21.4906C6.59916 21.4917 6.29856 21.4717 6 21.4306C7.68699 22.6409 9.65293 23.2833 11.661 23.2806C13.0467 23.2966 14.4214 23.0056 15.7048 22.4247C16.9882 21.8437 18.1545 20.9845 19.1357 19.8971C20.1168 18.8097 20.8932 17.516 21.4193 16.0915C21.9454 14.667 22.2108 13.1403 22.2 11.6006C22.2 11.4306 22.2 11.2506 22.2 11.0706C22.9062 10.4854 23.5153 9.76803 24 8.9506Z" fill="#000244"/>
</svg>