<svg width="45" height="46" viewBox="0 0 45 46" fill="none" xmlns="http://www.w3.org/2000/svg">
<path d="M31.1827 14.8259C31.628 14.8259 31.8506 15.0486 31.8506 15.4938V30.1877C31.8506 30.633 31.628 30.8556 31.1827 30.8556H27.1753C26.6187 30.8556 26.1456 30.6608 25.756 30.2712C25.3664 29.8816 25.1716 29.4085 25.1716 28.8519V28.184H23.7523C23.641 29.2972 23.1261 30.2434 22.2078 31.0226C21.2894 31.8018 20.2736 32.1914 19.1605 32.1914H17.5742L19.1605 38.1191C19.2161 38.3974 19.244 38.6756 19.244 38.9539C19.244 39.9001 18.9239 40.6933 18.2838 41.3333C17.6438 41.9734 16.8506 42.2935 15.9044 42.2935C15.2365 42.2935 14.5825 42.0569 13.9425 41.5838C13.3024 41.1107 12.8989 40.5124 12.7319 39.7888L10.6447 32.1914H5.88589C5.10667 32.1914 4.45268 31.941 3.92392 31.44C3.39516 30.9391 3.13079 30.3269 3.13079 29.6033C3.13079 29.5476 3.13079 29.5198 3.13079 29.5198C3.13079 29.0189 3.2421 28.5736 3.46474 28.184C2.85249 28.0727 2.30982 27.7666 1.83672 27.2656C1.36362 26.7647 1.12708 26.2081 1.12708 25.5959C1.12708 25.5402 1.12708 25.5124 1.12708 25.5124C1.12708 24.7888 1.37754 24.1487 1.87847 23.5922C1.93413 23.5922 1.98978 23.5643 2.04544 23.5087C1.4332 22.9521 1.12708 22.2842 1.12708 21.505C1.12708 20.7814 1.37754 20.1413 1.87847 19.5847C1.93413 19.5847 1.98978 19.5569 2.04544 19.5012C1.4332 18.9447 1.12708 18.2768 1.12708 17.4975C1.12708 16.774 1.39145 16.1478 1.92021 15.6191C2.44897 15.0903 3.07513 14.8259 3.79869 14.8259H5.30147C4.13264 14.3807 3.1447 13.5458 2.33765 12.3213C1.5306 11.0968 1.12708 9.87231 1.12708 8.64782C1.12708 7.97991 1.25231 7.2981 1.50277 6.60236C1.75323 5.90663 2.1011 5.23872 2.54637 4.59865C2.99164 3.95858 3.49257 3.47157 4.04915 3.13761C4.16047 3.02629 4.27179 2.97063 4.38311 2.97063C4.71706 2.97063 4.93969 3.13761 5.05101 3.47157L6.13635 7.64596L8.72448 6.97806L7.63913 2.80366C7.63913 2.748 7.63913 2.69234 7.63913 2.63668C7.63913 2.19141 7.86177 1.96878 8.30704 1.96878C9.42021 2.0801 10.4499 2.44188 11.3961 3.05412C12.3423 3.66637 13.0937 4.47342 13.6503 5.47527C14.2069 6.47713 14.4851 7.53465 14.4851 8.64782C14.4851 9.37138 14.3738 10.0949 14.1512 10.8185H15.821C17.0454 10.8185 18.2004 11.1107 19.2857 11.6951C20.371 12.2795 21.2616 13.0866 21.9573 14.1163C22.653 15.146 23.0566 16.273 23.1679 17.4975H25.1716V16.8296C25.1716 16.273 25.3664 15.7999 25.756 15.4103C26.1456 15.0207 26.6187 14.8259 27.1753 14.8259H31.1827ZM7.30518 14.325L7.38867 14.8259H11.5631L11.1456 13.3231C11.1456 13.2675 11.1456 13.2118 11.1456 13.1562C11.1456 12.9335 11.2013 12.7666 11.3126 12.6552C11.8135 12.21 12.2449 11.5977 12.6067 10.8185C12.9684 10.0393 13.1493 9.31572 13.1493 8.64782C13.1493 7.47898 12.7597 6.39364 11.9805 5.39178C11.2013 4.38993 10.2829 3.74986 9.22541 3.47157L10.2273 7.31201C10.2273 7.36767 10.2273 7.42332 10.2273 7.47898C10.2273 7.81293 10.0603 8.03557 9.72633 8.14689L5.88589 9.14874C5.83023 9.14874 5.77457 9.14874 5.71891 9.14874C5.38496 9.14874 5.16233 8.98177 5.05101 8.64782L4.04915 4.89086C2.99164 5.89272 2.46288 7.14503 2.46288 8.64782C2.46288 9.81665 2.88032 10.9159 3.7152 11.9456C4.55008 12.9753 5.55194 13.6293 6.72077 13.9076C6.99906 13.9632 7.19387 14.1024 7.30518 14.325ZM17.9082 38.453L16.1549 32.1914H12.064L13.9842 39.4549C14.0955 39.9001 14.346 40.2619 14.7356 40.5402C15.1252 40.8185 15.5148 40.9576 15.9044 40.9576C16.461 40.9576 16.9341 40.7628 17.3237 40.3732C17.7133 39.9836 17.9082 39.5105 17.9082 38.9539C17.9082 38.787 17.9082 38.62 17.9082 38.453ZM23.1679 26.8482H25.1716V18.8333H22.5C22.0547 18.8333 21.8321 18.6107 21.8321 18.1654C21.8321 16.4957 21.2477 15.0764 20.0788 13.9076C18.91 12.7387 17.4907 12.1543 15.821 12.1543H13.4833C13.205 12.5996 12.8989 12.9892 12.5649 13.3231L12.8989 14.8259H16.4889C16.9341 14.8259 17.1568 15.0486 17.1568 15.4938C17.1568 15.9391 16.9341 16.1617 16.4889 16.1617H3.79869C3.40908 16.1617 3.08904 16.287 2.83858 16.5374C2.58811 16.7879 2.46288 17.1079 2.46288 17.4975C2.46288 17.8871 2.58811 18.2072 2.83858 18.4576C3.08904 18.7081 3.40908 18.8333 3.79869 18.8333H7.80611C8.25138 18.8333 8.47401 19.056 8.47401 19.5012C8.47401 19.9465 8.25138 20.1692 7.80611 20.1692H3.79869C3.40908 20.1692 3.08904 20.2944 2.83858 20.5448C2.58811 20.7953 2.46288 21.1153 2.46288 21.505C2.46288 21.8946 2.58811 22.2146 2.83858 22.4651C3.08904 22.7155 3.40908 22.8408 3.79869 22.8408H7.80611C8.25138 22.8408 8.47401 23.0634 8.47401 23.5087C8.47401 23.9539 8.25138 24.1766 7.80611 24.1766H3.79869C3.63171 24.1766 3.46474 24.2183 3.29776 24.3018C3.13079 24.3853 2.99164 24.4827 2.88032 24.594C2.769 24.7053 2.6716 24.8445 2.58811 25.0115C2.50463 25.1784 2.46288 25.3454 2.46288 25.5124C2.46288 25.902 2.60203 26.222 2.88032 26.4725C3.15862 26.723 3.49257 26.8482 3.88218 26.8482H9.80982C10.2551 26.8482 10.4777 27.0708 10.4777 27.5161C10.4777 27.9614 10.2551 28.184 9.80982 28.184H5.8024C5.41279 28.184 5.09275 28.3092 4.84229 28.5597C4.59182 28.8102 4.46659 29.1302 4.46659 29.5198C4.46659 29.9094 4.60574 30.2294 4.88403 30.4799C5.16233 30.7304 5.49628 30.8556 5.88589 30.8556H19.1605C20.1067 30.8556 20.8998 30.5356 21.5399 29.8955C22.18 29.2554 22.5 28.4623 22.5 27.5161C22.5 27.0708 22.7226 26.8482 23.1679 26.8482ZM30.5148 29.5198V16.1617H27.1753C26.73 16.1617 26.5074 16.3844 26.5074 16.8296V28.8519C26.5074 29.2972 26.73 29.5198 27.1753 29.5198H30.5148Z" fill="white"/>
</svg>
