<svg width="45" height="46" viewBox="0 0 45 46" fill="none" xmlns="http://www.w3.org/2000/svg">
<path d="M23.8358 44.2866H21.1642C20.051 44.2866 19.1187 43.897 18.3673 43.1178C17.6159 42.3386 17.2402 41.4202 17.2402 40.3627V39.4443C16.2941 39.166 15.4035 38.8042 14.5686 38.359L13.9007 38.9434C13.1215 39.7226 12.1892 40.1122 11.1039 40.1122C10.0185 40.1122 9.08626 39.7226 8.30704 38.9434L6.4703 37.1067C5.69108 36.3274 5.30147 35.3952 5.30147 34.3098C5.30147 33.2245 5.69108 32.2922 6.4703 31.513L7.05472 30.8451C6.60945 30.0102 6.24767 29.1196 5.96938 28.1734H5.05101C3.99349 28.1734 3.07513 27.7978 2.29591 27.0464C1.51669 26.295 1.12708 25.3627 1.12708 24.2495V21.5779C1.12708 20.4647 1.51669 19.5324 2.29591 18.7811C3.07513 18.0297 3.99349 17.654 5.05101 17.654H5.96938C6.24767 16.7078 6.60945 15.8172 7.05472 14.9824L6.4703 14.3144C5.69108 13.5352 5.30147 12.6029 5.30147 11.5176C5.30147 10.4323 5.69108 9.49998 6.4703 8.72076L8.30704 6.88402C9.08626 6.1048 10.0185 5.71519 11.1039 5.71519C12.1892 5.71519 13.1215 6.1048 13.9007 6.88402L14.5686 7.46844C15.4035 7.02317 16.2941 6.66139 17.2402 6.38309V5.46473C17.2402 4.74117 17.4072 4.08718 17.7412 3.50276C18.0751 2.91835 18.5482 2.44525 19.1605 2.08347C19.7727 1.72168 20.4406 1.54079 21.1642 1.54079H23.8358C24.3924 1.54079 24.9072 1.6382 25.3803 1.833C25.8534 2.02781 26.2709 2.3061 26.6326 2.66788C26.9944 3.02966 27.2727 3.46102 27.4675 3.96194C27.6623 4.46287 27.7597 4.9638 27.7597 5.46473V6.38309C28.7059 6.66139 29.5965 7.02317 30.4313 7.46844L31.0992 6.88402C31.8785 6.1048 32.8107 5.71519 33.8961 5.71519C34.9814 5.71519 35.9137 6.1048 36.6929 6.88402L38.5297 8.72076C39.3089 9.49998 39.6985 10.4323 39.6985 11.5176C39.6985 12.6029 39.3089 13.5352 38.5297 14.3144L37.9453 14.9824C38.3905 15.8172 38.7523 16.7078 39.0306 17.654H39.949C41.0065 17.654 41.9249 18.0297 42.7041 18.7811C43.4833 19.5324 43.8729 20.4647 43.8729 21.5779V24.2495C43.8729 25.3627 43.4833 26.295 42.7041 27.0464C41.9249 27.7978 41.0065 28.1734 39.949 28.1734H39.0306C38.7523 29.1196 38.3905 30.0102 37.9453 30.8451L38.5297 31.513C39.3089 32.2922 39.6985 33.2245 39.6985 34.3098C39.6985 35.3952 39.3089 36.3274 38.5297 37.1067L36.6929 38.9434C35.9137 39.7226 34.9814 40.1122 33.8961 40.1122C32.8107 40.1122 31.8785 39.7226 31.0992 38.9434L30.4313 38.359C29.5965 38.8042 28.7059 39.166 27.7597 39.4443V40.3627C27.7597 41.4202 27.384 42.3386 26.6326 43.1178C25.8813 43.897 24.949 44.2866 23.8358 44.2866ZM14.9861 35.6874C16.1549 36.4109 17.4351 36.9397 18.8265 37.2736C19.4388 37.4406 19.7449 37.858 19.7449 38.526V40.3627C19.7449 40.7523 19.884 41.0863 20.1623 41.3645C20.4406 41.6428 20.7746 41.782 21.1642 41.782H23.8358C24.2254 41.782 24.5594 41.6428 24.8377 41.3645C25.1159 41.0863 25.2551 40.7523 25.2551 40.3627V38.526C25.2551 37.858 25.5612 37.4406 26.1735 37.2736C27.5649 36.9397 28.8451 36.4109 30.0139 35.6874C30.5705 35.3534 31.0992 35.4091 31.6002 35.8543L32.8525 37.1901C33.1308 37.4684 33.4647 37.6076 33.8543 37.6076C34.244 37.6076 34.5779 37.4684 34.8562 37.1901L36.7764 35.2699C37.0547 34.9916 37.1939 34.6577 37.1939 34.2681C37.1939 33.8785 37.0547 33.5445 36.7764 33.2662L35.4406 32.0139C34.9953 31.513 34.9397 30.9842 35.2736 30.4276C35.9972 29.2588 36.526 27.9786 36.8599 26.5872C37.0269 25.9749 37.4443 25.6688 38.1122 25.6688H39.949C40.3386 25.6688 40.6725 25.5297 40.9508 25.2514C41.2291 24.9731 41.3683 24.6391 41.3683 24.2495V21.5779C41.3683 21.2996 41.2987 21.0491 41.1595 20.8265C41.0204 20.6039 40.8534 20.4369 40.6586 20.3256C40.4638 20.2143 40.2273 20.1586 39.949 20.1586H38.1122C37.4443 20.1586 37.0269 19.8525 36.8599 19.2402C36.526 17.8488 35.9972 16.5686 35.2736 15.3998C34.9397 14.8432 34.9953 14.3144 35.4406 13.8135L36.7764 12.5612C37.0547 12.2829 37.1939 11.949 37.1939 11.5593C37.1939 11.1697 37.0547 10.8358 36.7764 10.5575L34.8562 8.63727C34.5779 8.35898 34.244 8.21983 33.8543 8.21983C33.4647 8.21983 33.1308 8.35898 32.8525 8.63727L31.6002 9.97308C31.0992 10.4183 30.5705 10.474 30.0139 10.1401C28.8451 9.41649 27.5649 8.88773 26.1735 8.55378C25.5612 8.38681 25.2551 7.96936 25.2551 7.30146V5.46473C25.2551 5.07512 25.1159 4.74117 24.8377 4.46287C24.5594 4.18458 24.2254 4.04543 23.8358 4.04543H21.1642C20.8859 4.04543 20.6354 4.11501 20.4128 4.25415C20.1902 4.3933 20.0232 4.56028 19.9119 4.75508C19.8005 4.94989 19.7449 5.18644 19.7449 5.46473V7.30146C19.7449 7.96936 19.4388 8.38681 18.8265 8.55378C17.4351 8.88773 16.1549 9.41649 14.9861 10.1401C14.4295 10.474 13.9007 10.4183 13.3998 9.97308L12.1475 8.63727C11.8692 8.35898 11.5352 8.21983 11.1456 8.21983C10.756 8.21983 10.4221 8.35898 10.1438 8.63727L8.22355 10.5575C7.94526 10.8358 7.80611 11.1697 7.80611 11.5593C7.80611 11.949 7.94526 12.2829 8.22355 12.5612L9.55936 13.8135C10.0046 14.3144 10.0603 14.8432 9.72633 15.3998C9.00277 16.5686 8.47401 17.8488 8.14006 19.2402C7.97309 19.8525 7.55565 20.1586 6.88774 20.1586H5.05101C4.6614 20.1586 4.32745 20.2978 4.04915 20.576C3.77086 20.8543 3.63171 21.1883 3.63171 21.5779V24.2495C3.63171 24.5278 3.70129 24.7783 3.84043 25.0009C3.97958 25.2235 4.14656 25.3905 4.34136 25.5018C4.53617 25.6132 4.77272 25.6688 5.05101 25.6688H6.88774C7.55565 25.6688 7.97309 25.9749 8.14006 26.5872C8.47401 27.9786 9.00277 29.2588 9.72633 30.4276C10.0603 30.9842 10.0046 31.513 9.55936 32.0139L8.22355 33.2662C7.94526 33.5445 7.80611 33.8785 7.80611 34.2681C7.80611 34.6577 7.94526 34.9916 8.22355 35.2699L10.1438 37.1901C10.4221 37.4684 10.756 37.6076 11.1456 37.6076C11.5352 37.6076 11.8692 37.4684 12.1475 37.1901L13.3998 35.8543C13.9007 35.4091 14.4295 35.3534 14.9861 35.6874ZM29.0538 29.4675C29.0538 29.4675 28.6016 29.9197 27.6971 30.8242C26.7927 31.7286 25.0603 32.1809 22.5 32.1809C19.9397 32.1809 17.7551 31.2764 15.9462 29.4675C14.1373 27.6586 13.2328 25.474 13.2328 22.9137C13.2328 20.3534 14.1373 18.1688 15.9462 16.3599C17.7551 14.551 19.9397 13.6465 22.5 13.6465C25.0603 13.6465 27.2449 14.551 29.0538 16.3599C30.8627 18.1688 31.7672 20.3534 31.7672 22.9137C31.7672 25.474 30.8627 27.6586 29.0538 29.4675ZM27.3005 18.1132C27.3005 18.1132 26.9736 17.7862 26.3196 17.1322C25.6656 16.4782 24.3924 16.1512 22.5 16.1512C20.6076 16.1512 19.0074 16.8052 17.6994 18.1132C16.3915 19.4211 15.7375 21.0213 15.7375 22.9137C15.7375 24.8061 16.3915 26.4063 17.6994 27.7143C19.0074 29.0222 20.6076 29.6762 22.5 29.6762C24.3924 29.6762 25.9926 29.0222 27.3005 27.7143C28.6085 26.4063 29.2625 24.8061 29.2625 22.9137C29.2625 21.0213 28.6085 19.4211 27.3005 18.1132Z" fill="white"/>
</svg>
