<svg width="45" height="46" viewBox="0 0 45 46" fill="none" xmlns="http://www.w3.org/2000/svg">
<path d="M26.1735 18.2384C26.1735 18.2384 26.1735 18.0992 26.1735 17.8209C26.1735 17.5427 26.4518 17.4035 27.0083 17.4035C27.5649 17.4035 27.8432 17.6818 27.8432 18.2384C27.8432 18.795 27.5649 19.0733 27.0083 19.0733C26.4518 19.0733 26.1735 18.795 26.1735 18.2384ZM42.871 38.6094C43.539 39.2217 43.8729 40.0009 43.8729 40.9471C43.8729 41.8933 43.5529 42.6864 42.9128 43.3265C42.2727 43.9666 41.4796 44.2866 40.5334 44.2866C39.5872 44.2866 38.808 43.9527 38.1957 43.2848L30.0974 35.2699L27.0083 32.1809C24.2254 34.0176 21.1642 34.936 17.8247 34.936C13.205 34.936 9.26715 33.308 6.01112 30.0519C2.75509 26.7959 1.12708 22.858 1.12708 18.2384C1.12708 13.6187 2.75509 9.68087 6.01112 6.42484C9.26715 3.16881 13.205 1.54079 17.8247 1.54079C22.4443 1.54079 26.3822 3.16881 29.6382 6.42484C32.8942 9.68087 34.5223 13.6187 34.5223 18.2384C34.5223 21.5779 33.6039 24.6391 31.7672 27.4221L42.871 38.6094ZM26.6744 30.4276C27.9545 29.4814 29.0677 28.3683 30.0139 27.0881C31.9063 24.4165 32.8525 21.4666 32.8525 18.2384C32.8525 14.1196 31.3775 10.5853 28.4276 7.63541C25.4777 4.68551 21.9434 3.21055 17.8247 3.21055C13.7059 3.21055 10.1716 4.68551 7.22169 7.63541C4.27179 10.5853 2.79683 14.1196 2.79683 18.2384C2.79683 22.3571 4.27179 25.8914 7.22169 28.8414C10.1716 31.7913 13.7059 33.2662 17.8247 33.2662C21.0529 33.2662 24.0028 32.32 26.6744 30.4276ZM28.4276 31.179L30.7653 33.5167C31.6002 32.7931 32.3794 32.0139 33.103 31.179L30.7653 28.8414C30.0417 29.6762 29.2625 30.4555 28.4276 31.179ZM40.5334 42.6169C40.5334 42.6169 40.6447 42.6169 40.8673 42.6169C41.09 42.6169 41.3683 42.4499 41.7022 42.1159C42.0362 41.782 42.2031 41.3924 42.2031 40.9471C42.2031 40.5018 42.0362 40.1122 41.7022 39.7783L34.2718 32.3478C33.5482 33.1827 32.769 33.9619 31.9341 34.6855L39.3646 42.1159C39.6985 42.4499 40.0881 42.6169 40.5334 42.6169ZM8.39053 8.80424C8.39053 8.80424 9.04452 8.15026 10.3525 6.84228C11.6605 5.5343 14.1512 4.88031 17.8247 4.88031C21.4981 4.88031 24.6428 6.18829 27.2588 8.80424C29.8748 11.4202 31.1827 14.5649 31.1827 18.2384C31.1827 21.9119 29.8748 25.0566 27.2588 27.6725C24.6428 30.2885 21.4981 31.5965 17.8247 31.5965C14.1512 31.5965 11.0065 30.2885 8.39053 27.6725C5.77457 25.0566 4.46659 21.9119 4.46659 18.2384C4.46659 14.5649 5.77457 11.4202 8.39053 8.80424ZM9.55936 26.5037C9.55936 26.5037 10.1299 27.0742 11.2709 28.2152C12.4119 29.3562 14.5965 29.9267 17.8247 29.9267C21.0529 29.9267 23.808 28.7857 26.09 26.5037C28.372 24.2217 29.513 21.4666 29.513 18.2384C29.513 15.0102 28.372 12.2551 26.09 9.97308C23.808 7.69107 21.0529 6.55007 17.8247 6.55007C14.5965 6.55007 11.8414 7.69107 9.55936 9.97308C7.27735 12.2551 6.13635 15.0102 6.13635 18.2384C6.13635 21.4666 7.27735 24.2217 9.55936 26.5037ZM27.1753 14.6484C27.3979 15.1493 27.231 15.5111 26.6744 15.7337C26.6187 15.7894 26.5352 15.8172 26.4239 15.8172C26.0343 15.8172 25.756 15.6224 25.589 15.2328C24.9768 13.6187 23.961 12.3247 22.5417 11.3506C21.1224 10.3766 19.5501 9.88959 17.8247 9.88959C17.2681 9.88959 16.9898 9.61129 16.9898 9.05471C16.9898 8.49812 17.2681 8.21983 17.8247 8.21983C19.9397 8.21983 21.8599 8.83207 23.5853 10.0566C25.2551 11.2254 26.4518 12.756 27.1753 14.6484Z" fill="white"/>
</svg>
