<svg width="41" height="41" viewBox="0 0 41 41" fill="none" xmlns="http://www.w3.org/2000/svg">
<path d="M6.22169 10.3111C6.22169 10.3111 6.12429 10.4085 5.92949 10.6033C5.73468 10.7981 5.35899 10.8955 4.8024 10.8955C4.24581 10.8955 3.77272 10.7007 3.38311 10.3111C2.99349 9.92149 2.79869 9.44839 2.79869 8.8918C2.79869 8.33522 2.99349 7.86212 3.38311 7.47251C3.77272 7.0829 4.24581 6.88809 4.8024 6.88809C5.35899 6.88809 5.83208 7.0829 6.22169 7.47251C6.61131 7.86212 6.80611 8.33522 6.80611 8.8918C6.80611 9.44839 6.61131 9.92149 6.22169 10.3111ZM5.4703 8.8918C5.4703 8.8918 5.4703 8.78048 5.4703 8.55785C5.4703 8.33522 5.24767 8.2239 4.8024 8.2239C4.35713 8.2239 4.1345 8.44653 4.1345 8.8918C4.1345 9.33707 4.35713 9.55971 4.8024 9.55971C5.24767 9.55971 5.4703 9.33707 5.4703 8.8918ZM6.22169 18.3259C6.22169 18.3259 6.12429 18.4233 5.92949 18.6181C5.73468 18.813 5.35899 18.9104 4.8024 18.9104C4.24581 18.9104 3.77272 18.7155 3.38311 18.3259C2.99349 17.9363 2.79869 17.4632 2.79869 16.9066C2.79869 16.3501 2.99349 15.877 3.38311 15.4873C3.77272 15.0977 4.24581 14.9029 4.8024 14.9029C5.35899 14.9029 5.83208 15.0977 6.22169 15.4873C6.61131 15.877 6.80611 16.3501 6.80611 16.9066C6.80611 17.4632 6.61131 17.9363 6.22169 18.3259ZM5.4703 16.9066C5.4703 16.9066 5.4703 16.7953 5.4703 16.5727C5.4703 16.3501 5.24767 16.2387 4.8024 16.2387C4.35713 16.2387 4.1345 16.4614 4.1345 16.9066C4.1345 17.3519 4.35713 17.5745 4.8024 17.5745C5.24767 17.5745 5.4703 17.3519 5.4703 16.9066ZM3.38311 23.5022C3.38311 23.5022 3.48051 23.4048 3.67531 23.21C3.87012 23.0152 4.24581 22.9178 4.8024 22.9178C5.35899 22.9178 5.83208 23.1126 6.22169 23.5022C6.61131 23.8918 6.80611 24.3649 6.80611 24.9215C6.80611 25.4781 6.61131 25.9512 6.22169 26.3408C5.83208 26.7304 5.35899 26.9252 4.8024 26.9252C4.24581 26.9252 3.77272 26.7304 3.38311 26.3408C2.99349 25.9512 2.79869 25.4781 2.79869 24.9215C2.79869 24.3649 2.99349 23.8918 3.38311 23.5022ZM4.1345 24.9215C4.1345 24.9215 4.1345 25.0328 4.1345 25.2554C4.1345 25.4781 4.35713 25.5894 4.8024 25.5894C5.24767 25.5894 5.4703 25.3668 5.4703 24.9215C5.4703 24.4762 5.24767 24.2536 4.8024 24.2536C4.35713 24.2536 4.1345 24.4762 4.1345 24.9215ZM3.38311 31.517C3.38311 31.517 3.48051 31.4196 3.67531 31.2248C3.87012 31.03 4.24581 30.9326 4.8024 30.9326C5.35899 30.9326 5.83208 31.1274 6.22169 31.517C6.61131 31.9066 6.80611 32.3797 6.80611 32.9363C6.80611 33.4929 6.61131 33.966 6.22169 34.3556C5.83208 34.7452 5.35899 34.94 4.8024 34.94C4.24581 34.94 3.77272 34.7452 3.38311 34.3556C2.99349 33.966 2.79869 33.4929 2.79869 32.9363C2.79869 32.3797 2.99349 31.9066 3.38311 31.517ZM4.1345 32.9363C4.1345 32.9363 4.1345 33.0476 4.1345 33.2703C4.1345 33.4929 4.35713 33.6042 4.8024 33.6042C5.24767 33.6042 5.4703 33.3816 5.4703 32.9363C5.4703 32.4911 5.24767 32.2684 4.8024 32.2684C4.35713 32.2684 4.1345 32.4911 4.1345 32.9363ZM8.14192 8.2239H9.47773V9.55971H8.14192V8.2239ZM10.8135 8.2239H12.1493V9.55971H10.8135V8.2239ZM13.4851 8.2239H14.821V9.55971H13.4851V8.2239ZM16.1568 8.2239H17.4926V9.55971H16.1568V8.2239ZM18.8284 8.2239H20.1642V9.55971H18.8284V8.2239ZM21.5 8.2239H22.8358V9.55971H21.5V8.2239ZM8.14192 16.2387H9.47773V17.5745H8.14192V16.2387ZM10.8135 16.2387H12.1493V17.5745H10.8135V16.2387ZM13.4851 16.2387H14.821V17.5745H13.4851V16.2387ZM16.1568 16.2387H17.4926V17.5745H16.1568V16.2387ZM18.8284 16.2387H20.1642V17.5745H18.8284V16.2387ZM21.5 16.2387H22.8358V17.5745H21.5V16.2387ZM8.14192 24.2536H9.47773V25.5894H8.14192V24.2536ZM10.8135 24.2536H12.1493V25.5894H10.8135V24.2536ZM13.4851 24.2536H14.821V25.5894H13.4851V24.2536ZM8.14192 32.2684H9.47773V33.6042H8.14192V32.2684ZM10.8135 32.2684H12.1493V33.6042H10.8135V32.2684ZM38.1976 0.876961C38.7542 0.876961 39.2273 1.07177 39.6169 1.46138C40.0065 1.85099 40.2013 2.32409 40.2013 2.88067V8.2239C40.2013 8.78048 40.0065 9.25358 39.6169 9.64319C39.2273 10.0328 38.7542 10.2276 38.1976 10.2276H35.526V11.5634H36.8618V12.8992H34.1902V14.235H32.8543V12.8992H30.1827V11.5634H31.5185V10.2276H28.8469C28.2903 10.2276 27.8172 10.0328 27.4276 9.64319C27.038 9.25358 26.8432 8.78048 26.8432 8.2239V2.88067C26.8432 2.32409 27.038 1.85099 27.4276 1.46138C27.8172 1.07177 28.2903 0.876961 28.8469 0.876961H38.1976ZM34.1902 11.5634V10.2276H32.8543V11.5634H34.1902ZM38.8655 8.2239V7.556H28.179V8.2239C28.179 8.66917 28.4017 8.8918 28.8469 8.8918H38.1976C38.6428 8.8918 38.8655 8.66917 38.8655 8.2239ZM38.8655 6.22019V2.88067C38.8655 2.4354 38.6428 2.21276 38.1976 2.21276H28.8469C28.4017 2.21276 28.179 2.4354 28.179 2.88067V6.22019H38.8655ZM34.1902 27.5931C34.6354 27.5931 34.8581 27.8157 34.8581 28.261V33.6042C34.8581 34.0495 34.6354 34.2721 34.1902 34.2721H32.9378L33.8562 35.1905C33.9675 35.3018 34.0232 35.4549 34.0232 35.6497C34.0232 35.8445 33.9675 35.9976 33.8562 36.1089L30.0158 39.9493C29.9044 40.0606 29.7514 40.1163 29.5566 40.1163C29.3618 40.1163 29.2087 40.0606 29.0974 39.9493L28.179 39.0309V40.2833C28.179 40.7285 27.9564 40.9512 27.5111 40.9512H22.1679C21.7226 40.9512 21.5 40.7285 21.5 40.2833V39.0309L20.5816 39.9493C20.4703 40.0606 20.3172 40.1163 20.1224 40.1163C19.9276 40.1163 19.7746 40.0606 19.6633 39.9493L17.3256 37.6117H0.794979C0.34971 37.6117 0.127075 37.389 0.127075 36.9438V4.88438C0.127075 4.43911 0.34971 4.21648 0.794979 4.21648H24.8395C25.2848 4.21648 25.5074 4.43911 25.5074 4.88438V20.9141H27.5111C27.9564 20.9141 28.179 21.1367 28.179 21.582V22.8343L29.0974 21.9159C29.2087 21.8046 29.3618 21.7489 29.5566 21.7489C29.7514 21.7489 29.9044 21.8046 30.0158 21.9159L33.8562 25.7564C33.9675 25.8677 34.0232 26.0207 34.0232 26.2156C34.0232 26.4104 33.9675 26.5634 33.8562 26.6747L32.9378 27.5931H34.1902ZM1.46288 5.55228V12.2313H24.1716V5.55228H1.46288ZM1.46288 13.5671V20.2462H24.1716V13.5671H1.46288ZM1.46288 21.582V28.261H14.821C14.821 27.8157 15.0436 27.5931 15.4889 27.5931H16.7412L15.8228 26.6747C15.7115 26.5634 15.6558 26.4104 15.6558 26.2156C15.6558 26.0207 15.7115 25.8677 15.8228 25.7564L19.6633 21.9159C19.7746 21.8046 19.9276 21.7489 20.1224 21.7489C20.3172 21.7489 20.4703 21.8046 20.5816 21.9159L21.5 22.8343V21.582H1.46288ZM15.8228 36.1089C15.7115 35.9976 15.6558 35.8445 15.6558 35.6497C15.6558 35.4549 15.7115 35.3018 15.8228 35.1905L16.7412 34.2721H15.4889C15.0436 34.2721 14.821 34.0495 14.821 33.6042V29.5968H1.46288V36.2758H15.9898L15.8228 36.1089ZM33.5223 32.9363V28.9289H31.2681C30.8228 28.9289 30.6002 28.7063 30.6002 28.261C30.6002 28.094 30.6837 27.9271 30.8506 27.7601L32.3534 26.1738L29.5983 23.4187L28.012 24.9215C27.8451 25.0885 27.6781 25.172 27.5111 25.172C27.0659 25.172 26.8432 24.9493 26.8432 24.504V22.2499H22.8358V24.504C22.8358 24.9493 22.6132 25.172 22.1679 25.172C22.0009 25.172 21.8339 25.0885 21.667 24.9215L20.0807 23.4187L17.3256 26.1738L18.8284 27.7601C18.9953 27.9271 19.0788 28.094 19.0788 28.261C19.0788 28.7063 18.8562 28.9289 18.4109 28.9289H16.1568V32.9363H18.4109C18.8562 32.9363 19.0788 33.159 19.0788 33.6042C19.0788 33.7712 18.9953 33.9382 18.8284 34.1052L17.3256 35.6914L20.0807 38.4465L21.667 36.9438C21.8339 36.7768 22.0009 36.6933 22.1679 36.6933C22.6132 36.6933 22.8358 36.9159 22.8358 37.3612V39.6154H26.8432V37.3612C26.8432 36.9159 27.0659 36.6933 27.5111 36.6933C27.6781 36.6933 27.8451 36.7768 28.012 36.9438L29.5983 38.4465L32.3534 35.6914L30.8506 34.1052C30.6837 33.9382 30.6002 33.7712 30.6002 33.6042C30.6002 33.159 30.8228 32.9363 31.2681 32.9363H33.5223ZM21.5417 27.6348C21.5417 27.6348 21.7713 27.4053 22.2305 26.9461C22.6897 26.4869 23.5594 26.2573 24.8395 26.2573C26.1197 26.2573 27.2189 26.7165 28.1373 27.6348C29.0556 28.5532 29.5148 29.6525 29.5148 30.9326C29.5148 32.2128 29.0556 33.312 28.1373 34.2304C27.2189 35.1488 26.1197 35.6079 24.8395 35.6079C23.5594 35.6079 22.4601 35.1488 21.5417 34.2304C20.6234 33.312 20.1642 32.2128 20.1642 30.9326C20.1642 29.6525 20.6234 28.5532 21.5417 27.6348ZM22.4601 33.312C22.4601 33.312 22.6201 33.472 22.9402 33.7921C23.2602 34.1121 23.8933 34.2721 24.8395 34.2721C25.7857 34.2721 26.5788 33.9521 27.2189 33.312C27.859 32.672 28.179 31.8788 28.179 30.9326C28.179 29.9864 27.859 29.1933 27.2189 28.5532C26.5788 27.9131 25.7857 27.5931 24.8395 27.5931C23.8933 27.5931 23.1002 27.9131 22.4601 28.5532C21.82 29.1933 21.5 29.9864 21.5 30.9326C21.5 31.8788 21.82 32.672 22.4601 33.312ZM26.8432 16.2387H28.179V17.5745H26.8432V16.2387ZM29.5148 16.2387H30.8506V17.5745H29.5148V16.2387ZM34.8581 20.9141H36.1939V22.2499H34.8581V20.9141ZM39.5334 20.9141C39.9787 20.9141 40.2013 21.1367 40.2013 21.582V23.5857H38.8655V22.2499H37.5297V20.9141H39.5334ZM32.1864 20.9141H33.5223V22.2499H32.1864V20.9141ZM38.8655 24.9215H40.2013V26.2573H38.8655V24.9215ZM38.8655 27.5931H40.2013V28.9289H38.8655V27.5931ZM38.8655 30.2647H40.2013V31.6005H38.8655V30.2647ZM38.8655 32.9363H40.2013V34.2721H38.8655V32.9363ZM38.8655 35.6079H40.2013V36.9438H38.8655V35.6079ZM38.8655 39.6154V38.2796H40.2013V40.2833C40.2013 40.7285 39.9787 40.9512 39.5334 40.9512H37.5297V39.6154H38.8655ZM34.8581 39.6154H36.1939V40.9512H34.8581V39.6154ZM32.1864 39.6154H33.5223V40.9512H32.1864V39.6154ZM34.1902 16.9066C34.1902 17.3519 33.9675 17.5745 33.5223 17.5745H32.1864V16.2387H32.8543V15.5708H34.1902V16.9066Z" fill="white"/>
</svg>
