<svg width="45" height="46" viewBox="0 0 45 46" fill="none" xmlns="http://www.w3.org/2000/svg">
<path d="M15.2365 25.846C15.1809 25.846 15.153 25.846 15.153 25.846C12.3701 25.7347 10.0046 24.6633 8.05657 22.6317C6.10852 20.6002 5.1345 18.2208 5.1345 15.4935C5.1345 12.5993 6.15027 10.1503 8.18181 8.14659C10.2133 6.14288 12.6484 5.14102 15.487 5.14102C16.9341 5.14102 18.2978 5.4054 19.5779 5.93416C20.8581 6.46291 21.9573 7.18648 22.8757 8.10484C23.7941 9.02321 24.5176 10.1225 25.0464 11.4026C25.5751 12.6828 25.8395 14.0464 25.8395 15.4935C25.8395 18.3321 24.8377 20.7672 22.8339 22.7987C20.8302 24.8303 18.3813 25.846 15.487 25.846H15.2365ZM9.6011 9.60763C9.6011 9.60763 9.19062 10.0181 8.36965 10.8391C7.54869 11.66 7.13821 13.2115 7.13821 15.4935C7.13821 17.7755 7.95917 19.7375 9.6011 21.3794C11.243 23.0214 13.205 23.8423 15.487 23.8423C17.769 23.8423 19.731 23.0214 21.3729 21.3794C23.0148 19.7375 23.8358 17.7755 23.8358 15.4935C23.8358 13.2115 23.0148 11.2496 21.3729 9.60763C19.731 7.9657 17.769 7.14473 15.487 7.14473C13.205 7.14473 11.243 7.9657 9.6011 9.60763ZM31.4332 33.193C31.7672 33.4156 31.8646 33.7356 31.7254 34.1531C31.5863 34.5705 31.3219 34.8071 30.9323 34.8627L26.9249 35.6976L26.09 39.705C26.0343 40.0946 25.7978 40.359 25.3803 40.4982C24.9629 40.6373 24.6428 40.5399 24.4202 40.206L20.4963 36.3655V42.2097C20.4963 42.5993 20.3154 42.8915 19.9536 43.0863C19.5918 43.2811 19.244 43.2672 18.91 43.0445L15.487 40.7069L12.064 43.0445C11.73 43.2672 11.3822 43.2811 11.0204 43.0863C10.6586 42.8915 10.4777 42.5993 10.4777 42.2097V28.9351C7.69479 27.9332 5.44062 26.2078 3.7152 23.7588C1.98978 21.3099 1.12708 18.5548 1.12708 15.4935C1.12708 11.5418 2.53246 8.1605 5.34322 5.34974C8.15398 2.53898 11.5352 1.1336 15.487 1.1336C19.4388 1.1336 22.82 2.53898 25.6308 5.34974C28.4415 8.1605 29.8469 11.5418 29.8469 15.4935C29.8469 17.3303 29.346 19.3201 28.3441 21.4629C27.3423 23.6058 26.1456 25.2616 24.7542 26.4304L31.4332 33.193ZM6.76251 6.76904C6.76251 6.76904 6.15722 7.37432 4.94665 8.5849C3.73607 9.79548 3.13079 12.0984 3.13079 15.4935C3.13079 18.8887 4.34136 21.7969 6.76251 24.218C9.18366 26.6392 12.0918 27.8497 15.487 27.8497C18.8822 27.8497 21.7903 26.6392 24.2115 24.218C26.6326 21.7969 27.8432 18.8887 27.8432 15.4935C27.8432 12.0984 26.6326 9.19019 24.2115 6.76904C21.7903 4.34789 18.8822 3.13731 15.487 3.13731C12.0918 3.13731 9.18366 4.34789 6.76251 6.76904ZM16.0714 38.7032L18.4926 40.3729V29.5195C17.4907 29.7421 16.4889 29.8535 15.487 29.8535C14.4851 29.8535 13.4833 29.7421 12.4814 29.5195V40.3729L14.9026 38.7032C15.0696 38.5919 15.2644 38.5362 15.487 38.5362C15.7096 38.5362 15.9044 38.5919 16.0714 38.7032ZM25.8395 33.8609L28.7616 33.2765L23.0844 27.6828C22.3052 28.1837 21.4425 28.6011 20.4963 28.9351V33.5269L24.5037 37.5343L25.0881 34.6123C25.1438 34.167 25.3942 33.9165 25.8395 33.8609ZM18.1586 20.5863L15.487 19.2505L12.8154 20.5863C12.4814 20.8089 12.1475 20.7811 11.8135 20.5028C11.4796 20.2245 11.3404 19.8906 11.3961 19.5009L11.897 16.5789L9.72633 14.4917C9.44804 14.2134 9.37847 13.8794 9.51761 13.4898C9.65676 13.1002 9.92114 12.8776 10.3107 12.8219L13.2328 12.321L14.5686 9.73286C14.7356 9.34325 15.0417 9.14845 15.487 9.14845C15.9323 9.14845 16.2384 9.34325 16.4054 9.73286L17.7412 12.4045L20.6633 12.8219C21.0529 12.8776 21.3172 13.1002 21.4564 13.4898C21.5955 13.8794 21.526 14.2134 21.2477 14.4917L19.077 16.5789L19.5779 19.5009C19.6336 19.8906 19.4944 20.2245 19.1605 20.5028C18.8265 20.7811 18.4926 20.8089 18.1586 20.5863ZM13.7338 17.9147L14.9861 17.1633C15.153 17.1076 15.32 17.0798 15.487 17.0798C15.654 17.0798 15.821 17.1076 15.9879 17.1633L17.2402 17.9147L16.9898 16.4119C16.9898 16.3562 16.9898 16.3006 16.9898 16.2449C16.9898 15.9666 17.1011 15.7162 17.3237 15.4935L18.4091 14.4917L16.9063 14.2412C16.5723 14.1856 16.3219 14.0186 16.1549 13.7403L15.487 12.4045L14.8191 13.7403C14.6521 14.0186 14.4017 14.1856 14.0677 14.2412L12.5649 14.4917L13.6503 15.4935C13.8729 15.7162 13.9842 15.9666 13.9842 16.2449C13.9842 16.3006 13.9842 16.3562 13.9842 16.4119L13.7338 17.9147Z" fill="white"/>
</svg>
