<svg width="45" height="46" viewBox="0 0 45 46" fill="none" xmlns="http://www.w3.org/2000/svg">
<g clip-path="url(#clip0_136_3389)">
<path d="M36.8599 8.14652C37.3052 8.3135 37.5278 8.61962 37.5278 9.06489V18.2486C37.5278 25.8738 34.8562 32.3024 29.513 37.5343C28.2885 38.7588 26.9666 39.8441 25.5473 40.7903C24.128 41.7365 22.8896 42.4322 21.8321 42.8775C20.7746 43.3228 19.9397 43.5454 19.3274 43.5454C18.3813 43.5454 16.9063 42.9888 14.9026 41.8757C12.8989 40.7625 10.9787 39.3154 9.14192 37.5343C3.79869 32.3024 1.12708 25.8738 1.12708 18.2486V9.06489C1.12708 8.61962 1.34971 8.3135 1.79498 8.14652C7.75045 6.53242 13.4555 4.11127 18.91 0.883072C19.1883 0.716095 19.4666 0.716095 19.7449 0.883072C25.1994 4.11127 30.9044 6.53242 36.8599 8.14652ZM35.7746 18.2486V9.73279C30.0417 8.11869 24.5594 5.78103 19.3274 2.71981C14.0955 5.78103 8.61316 8.11869 2.88032 9.73279V18.2486C2.88032 25.3729 5.38496 31.384 10.3942 36.282C12.1197 37.9517 13.8868 39.2736 15.6957 40.2476C17.5046 41.2217 18.7152 41.7087 19.3274 41.7087C19.9397 41.7087 21.1503 41.2217 22.9592 40.2476C24.7681 39.2736 26.5352 37.9517 28.2607 36.282C33.2699 31.384 35.7746 25.3729 35.7746 18.2486ZM10.2273 9.14838C10.7838 8.92574 11.1595 9.09272 11.3543 9.64931C11.5492 10.2059 11.3683 10.5955 10.8117 10.8181C9.42021 11.3747 7.97309 11.9035 6.4703 12.4044V15.1595C6.4703 15.4378 6.38682 15.6604 6.21984 15.8274C6.05286 15.9944 5.84414 16.0779 5.59368 16.0779C5.34322 16.0779 5.12058 15.9944 4.92578 15.8274C4.73097 15.6604 4.63357 15.4378 4.63357 15.1595V11.7365C4.63357 11.2912 4.8562 10.9851 5.30147 10.8181C6.97123 10.3172 8.61316 9.76062 10.2273 9.14838ZM13.0659 9.81628C12.6762 9.81628 12.3979 9.62148 12.231 9.23186C12.0083 8.67528 12.1753 8.28567 12.7319 8.06303C13.2885 7.8404 13.6781 8.00738 13.9007 8.56396C14.1234 9.12055 13.9842 9.51016 13.4833 9.73279H13.3998C13.2885 9.78845 13.1772 9.81628 13.0659 9.81628ZM28.7616 30.0204C29.0955 29.5194 29.513 29.4359 30.0139 29.7699C30.5148 30.1039 30.5983 30.5213 30.2644 31.0222C29.4851 32.2467 28.5668 33.4155 27.5093 34.5287C26.6187 35.4193 25.7004 36.2541 24.7542 37.0334C24.5872 37.1447 24.3924 37.2003 24.1697 37.2003C23.8915 37.2003 23.6688 37.089 23.5018 36.8664C23.1122 36.3654 23.1679 35.948 23.6688 35.6141C24.5594 34.8905 25.3942 34.1113 26.1735 33.2764C27.1753 32.2745 28.038 31.1892 28.7616 30.0204ZM21.5816 36.9499C22.0825 36.6716 22.4861 36.7968 22.7922 37.3256C23.0983 37.8543 22.9731 38.2578 22.4165 38.5361C22.2495 38.6475 22.0825 38.7031 21.9156 38.7031C21.5816 38.7031 21.3312 38.564 21.1642 38.2857C20.8859 37.7291 20.9972 37.3116 21.4981 37.0334L21.5816 36.9499ZM13.2328 20.3358L16.4054 23.5918L25.4221 14.5751C26.0343 14.0185 26.744 13.7402 27.551 13.7402C28.3581 13.7402 29.0399 14.0185 29.5965 14.5751C30.153 15.1317 30.4313 15.8135 30.4313 16.6205C30.4313 17.4276 30.153 18.1094 29.5965 18.666L18.4926 29.7699C17.936 30.3265 17.2542 30.6048 16.4471 30.6048C15.6401 30.6048 14.9582 30.3265 14.4017 29.7699L9.05843 24.5102C8.50184 23.8979 8.22355 23.1883 8.22355 22.3812C8.22355 21.5742 8.50184 20.8923 9.05843 20.3358C9.61502 19.7792 10.2968 19.5009 11.1039 19.5009C11.9109 19.5009 12.6206 19.7792 13.2328 20.3358ZM26.7579 15.8274L17.0733 25.512C16.9063 25.679 16.6976 25.7625 16.4471 25.7625C16.1966 25.7625 15.9879 25.679 15.821 25.512L11.897 21.5881C11.6744 21.3654 11.41 21.2541 11.1039 21.2541C10.7978 21.2541 10.5334 21.3654 10.3107 21.5881C9.80982 22.1447 9.80982 22.6734 10.3107 23.1744L15.654 28.5176C15.8766 28.7402 16.141 28.8515 16.4471 28.8515C16.7532 28.8515 17.0176 28.7402 17.2402 28.5176L28.3441 17.4137C28.8451 16.9128 28.8451 16.384 28.3441 15.8274C28.1215 15.6048 27.8571 15.4935 27.551 15.4935C27.2449 15.4935 26.9805 15.6048 26.7579 15.8274Z" fill="white"/>
</g>
<defs>
<clipPath id="clip0_136_3389">
<rect width="45" height="45" fill="white" transform="matrix(1 0 0 -1 0 45.2153)"/>
</clipPath>
</defs>
</svg>
