<svg width="70" height="57" viewBox="0 0 70 57" fill="none" xmlns="http://www.w3.org/2000/svg">
<path d="M42 0.253418C37.8368 0.253418 33.8328 1.14207 30.0986 2.89557C28.3503 3.71947 27.5968 5.80092 28.4186 7.55092C29.2408 9.30442 31.3257 10.0527 33.0757 9.23267C35.8698 7.91982 38.8724 7.25342 42 7.25342C53.5801 7.25342 63 16.6733 63 28.2534C63 39.8335 53.5801 49.2534 42 49.2534C39.5238 49.2534 37.1021 48.8296 34.8001 47.9955C32.9868 47.3358 30.9754 48.2724 30.3156 50.0875C29.6558 51.9057 30.5942 53.9123 32.4107 54.572C35.4802 55.6896 38.7069 56.2534 42 56.2534C57.4389 56.2534 70 43.6923 70 28.2534C70 12.8146 57.4389 0.253418 42 0.253418ZM10.5 24.7534C8.5673 24.7534 7 26.319 7 28.2534C7 30.1879 8.5673 31.7534 10.5 31.7534H24.5C26.4327 31.7534 28 30.1879 28 28.2534C28 26.319 26.4327 24.7534 24.5 24.7534H10.5Z" fill="#21407E"/>
<path d="M31.5 14.2534C31.5 12.319 29.9327 10.7534 28 10.7534H17.5C15.5673 10.7534 14 12.319 14 14.2534C14 16.1879 15.5673 17.7534 17.5 17.7534H28C29.9327 17.7534 31.5 16.1879 31.5 14.2534ZM3.5 45.7534H28C29.9327 45.7534 31.5 44.1879 31.5 42.2534C31.5 40.319 29.9327 38.7534 28 38.7534H3.5C1.5673 38.7534 0 40.319 0 42.2534C0 44.1879 1.5673 45.7534 3.5 45.7534ZM42 17.7534C40.0673 17.7534 38.5 19.319 38.5 21.2534V28.2534C38.5 29.5796 39.2486 30.7895 40.4344 31.3842L47.4344 34.8842C47.937 35.1337 48.4718 35.2534 48.9965 35.2534C50.2817 35.2534 51.5172 34.5461 52.1308 33.319C52.9956 31.5896 52.2949 29.4875 50.5652 28.6227L45.5 26.0897V21.2534C45.5 19.319 43.9327 17.7534 42 17.7534Z" fill="#21407E"/>
</svg>
