<svg width="54" height="71" viewBox="0 0 54 71" fill="none" xmlns="http://www.w3.org/2000/svg">
<g clip-path="url(#clip0_146_4782)">
<path d="M39.1179 70.0845H6.1687C5.6248 70.0845 5.10318 69.8684 4.71858 69.4838C4.33398 69.0992 4.11792 68.5776 4.11792 68.0337V59.7964C4.11792 59.2525 4.33398 58.7309 4.71858 58.3463C5.10318 57.9617 5.6248 57.7456 6.1687 57.7456H39.1179C39.6618 57.7456 40.1834 57.9617 40.568 58.3463C40.9526 58.7309 41.1687 59.2525 41.1687 59.7964V68.0337C41.1687 68.5776 40.9526 69.0992 40.568 69.4838C40.1834 69.8684 39.6618 70.0845 39.1179 70.0845ZM8.21948 65.9829H37.0671V61.8472H8.21948V65.9829Z" fill="#21407E"/>
<path d="M6.16875 61.847C5.62485 61.847 5.10322 61.631 4.71863 61.2464C4.33403 60.8618 4.11797 60.3401 4.11797 59.7962V54.2386L0.344531 48.5785C0.119923 48.2416 4.41189e-05 47.8458 0 47.441V37.1433C0 36.5994 0.216064 36.0778 0.60066 35.6932C0.985256 35.3086 1.50688 35.0925 2.05078 35.0925C2.59468 35.0925 3.11631 35.3086 3.5009 35.6932C3.8855 36.0778 4.10156 36.5994 4.10156 37.1433V46.8189L7.87637 52.4804C8.10049 52.8174 8.21989 53.2132 8.21953 53.6179V59.7962C8.21953 60.3401 8.00347 60.8618 7.61887 61.2464C7.23427 61.631 6.71265 61.847 6.16875 61.847Z" fill="#21407E"/>
<path d="M6.1687 43.3135C4.53308 43.3113 2.96509 42.6605 1.80865 41.5038C0.652217 40.3471 0.0017599 38.779 -4.87763e-05 37.1434V33.0254C-0.0122249 32.2075 0.138356 31.3953 0.442934 30.6361C0.747513 29.8769 1.20001 29.1859 1.7741 28.6032C2.34819 28.0205 3.03242 27.5578 3.78699 27.2419C4.54155 26.9261 5.35138 26.7634 6.16938 26.7634C6.98739 26.7634 7.79722 26.9261 8.55178 27.2419C9.30635 27.5578 9.99058 28.0205 10.5647 28.6032C11.1388 29.1859 11.5913 29.8769 11.8958 30.6361C12.2004 31.3953 12.351 32.2075 12.3388 33.0254V37.1434C12.337 38.7792 11.6864 40.3476 10.5296 41.5043C9.3729 42.661 7.80456 43.3117 6.1687 43.3135ZM6.1687 30.9568C5.62055 30.9579 5.09517 31.1762 4.70769 31.564C4.32022 31.9517 4.10224 32.4772 4.10151 33.0254V37.1434C4.09442 37.4194 4.14265 37.694 4.24338 37.9511C4.34411 38.2082 4.49529 38.4426 4.68801 38.6403C4.88074 38.838 5.1111 38.9952 5.36552 39.1025C5.61994 39.2098 5.89326 39.2651 6.16938 39.2651C6.44551 39.2651 6.71883 39.2098 6.97325 39.1025C7.22767 38.9952 7.45803 38.838 7.65075 38.6403C7.84348 38.4426 7.99466 38.2082 8.09539 37.9511C8.19612 37.694 8.24435 37.4194 8.23726 37.1434V33.0254C8.23653 32.477 8.01836 31.9513 7.63059 31.5635C7.24282 31.1757 6.71709 30.9576 6.1687 30.9568Z" fill="#21407E"/>
<path d="M14.4074 43.3136C12.7715 43.3118 11.2032 42.6612 10.0464 41.5044C8.88971 40.3477 8.23907 38.7794 8.23726 37.1435V30.9666C8.22508 30.1486 8.37566 29.3365 8.68024 28.5773C8.98482 27.8181 9.43731 27.1271 10.0114 26.5444C10.5855 25.9617 11.2697 25.4989 12.0243 25.1831C12.7789 24.8672 13.5887 24.7046 14.4067 24.7046C15.2247 24.7046 16.0345 24.8672 16.7891 25.1831C17.5437 25.4989 18.2279 25.9617 18.802 26.5444C19.3761 27.1271 19.8286 27.8181 20.1331 28.5773C20.4377 29.3365 20.5883 30.1486 20.5761 30.9666V37.1435C20.5743 38.7791 19.9239 40.3473 18.7674 41.504C17.611 42.6606 16.043 43.3114 14.4074 43.3136ZM14.4074 28.898C13.859 28.8987 13.3333 29.1169 12.9455 29.5047C12.5577 29.8924 12.3395 30.4182 12.3388 30.9666V37.1435C12.3317 37.4195 12.38 37.6942 12.4807 37.9513C12.5814 38.2084 12.7326 38.4427 12.9253 38.6404C13.118 38.8382 13.3484 38.9953 13.6028 39.1026C13.8572 39.21 14.1306 39.2652 14.4067 39.2652C14.6828 39.2652 14.9561 39.21 15.2106 39.1026C15.465 38.9953 15.6953 38.8382 15.8881 38.6404C16.0808 38.4427 16.232 38.2084 16.3327 37.9513C16.4334 37.6942 16.4817 37.4195 16.4746 37.1435V30.9666C16.4738 30.4184 16.2559 29.8929 15.8684 29.5051C15.4809 29.1174 14.9555 28.8991 14.4074 28.898Z" fill="#21407E"/>
<path d="M22.6434 43.3136C21.0077 43.3114 19.4397 42.6606 18.2833 41.5039C17.1269 40.3472 16.4764 38.7791 16.4746 37.1435V28.9062C16.4987 27.2858 17.1593 25.74 18.3137 24.6027C19.4681 23.4654 21.0235 22.8279 22.644 22.8279C24.2646 22.8279 25.82 23.4654 26.9744 24.6027C28.1287 25.74 28.7894 27.2858 28.8135 28.9062V37.1435C28.8117 38.7793 28.161 40.3477 27.0043 41.5044C25.8476 42.6611 24.2792 43.3118 22.6434 43.3136ZM22.6434 26.839C22.0953 26.8397 21.57 27.0577 21.1824 27.4452C20.7949 27.8327 20.5769 28.3581 20.5762 28.9062V37.1435C20.5691 37.4195 20.6173 37.6941 20.718 37.9512C20.8188 38.2083 20.97 38.4427 21.1627 38.6404C21.3554 38.8381 21.5858 38.9953 21.8402 39.1026C22.0946 39.2099 22.3679 39.2652 22.644 39.2652C22.9202 39.2652 23.1935 39.2099 23.4479 39.1026C23.7023 38.9953 23.9327 38.8381 24.1254 38.6404C24.3181 38.4427 24.4693 38.2083 24.57 37.9512C24.6708 37.6941 24.719 37.4195 24.7119 37.1435V28.9062C24.7112 28.3579 24.493 27.8323 24.1052 27.4447C23.7174 27.0572 23.1916 26.8393 22.6434 26.839Z" fill="#21407E"/>
<path d="M39.1179 61.8472C38.574 61.8472 38.0524 61.6312 37.6678 61.2466C37.2832 60.862 37.0671 60.3403 37.0671 59.7964V51.5591C37.0672 51.2897 37.1204 51.0229 37.2236 50.774C37.3268 50.5251 37.478 50.299 37.6687 50.1085L48.6062 39.171C47.2836 38.1219 45.6214 37.5958 43.9361 37.6929C42.2507 37.7899 40.6599 38.5034 39.4666 39.6974L36.4505 42.7121C36.1638 42.999 35.7984 43.1944 35.4006 43.2737C35.0028 43.3529 34.5904 43.3124 34.2157 43.1573C33.8409 43.0022 33.5205 42.7394 33.2951 42.4022C33.0696 42.065 32.9493 41.6685 32.9492 41.2628V14.4919C32.9563 14.2159 32.908 13.9413 32.8073 13.6842C32.7066 13.4271 32.5554 13.1927 32.3627 12.995C32.1699 12.7973 31.9396 12.6401 31.6852 12.5328C31.4307 12.4255 31.1574 12.3702 30.8813 12.3702C30.6052 12.3702 30.3318 12.4255 30.0774 12.5328C29.823 12.6401 29.5927 12.7973 29.3999 12.995C29.2072 13.1927 29.056 13.4271 28.9553 13.6842C28.8546 13.9413 28.8063 14.2159 28.8134 14.4919V28.9062C28.8134 29.4501 28.5974 29.9717 28.2128 30.3563C27.8282 30.7409 27.3065 30.957 26.7626 30.957C26.2187 30.957 25.6971 30.7409 25.3125 30.3563C24.9279 29.9717 24.7119 29.4501 24.7119 28.9062V14.4919C24.6997 13.674 24.8503 12.8619 25.1548 12.1027C25.4594 11.3435 25.9119 10.6525 26.486 10.0698C27.0601 9.48706 27.7443 9.02432 28.4989 8.70848C29.2535 8.39263 30.0633 8.22998 30.8813 8.22998C31.6993 8.22998 32.5091 8.39263 33.2637 8.70848C34.0183 9.02432 34.7025 9.48706 35.2766 10.0698C35.8507 10.6525 36.3032 11.3435 36.6077 12.1027C36.9123 12.8619 37.0629 13.674 37.0507 14.4919V36.3396C38.1867 35.3341 39.5186 34.5748 40.9626 34.1096C42.4066 33.6444 43.9313 33.4834 45.4406 33.6368C46.9498 33.7902 48.411 34.2545 49.7319 35.0007C51.0528 35.7468 52.2047 36.7585 53.1152 37.972C53.4116 38.3669 53.5555 38.8555 53.5206 39.348C53.4857 39.8405 53.2743 40.3039 52.9251 40.6531L41.1673 52.4109V59.7937C41.1677 60.0631 41.115 60.33 41.0121 60.579C40.9093 60.8281 40.7584 61.0544 40.5681 61.2451C40.3778 61.4358 40.1518 61.5871 39.9029 61.6905C39.6541 61.7938 39.3873 61.847 39.1179 61.8472Z" fill="#21407E"/>
<path d="M43.2373 16.5426C42.6934 16.5426 42.1717 16.3266 41.7871 15.942C41.4025 15.5574 41.1865 15.0358 41.1865 14.4919C41.2022 13.1286 40.9472 11.7757 40.4364 10.5117C39.9255 9.24762 39.169 8.09749 38.2105 7.12791C37.252 6.15832 36.1107 5.38855 34.8526 4.86318C33.5945 4.33782 32.2447 4.0673 30.8813 4.0673C29.5179 4.0673 28.1681 4.33782 26.91 4.86318C25.6519 5.38855 24.5106 6.15832 23.5521 7.12791C22.5936 8.09749 21.8371 9.24762 21.3262 10.5117C20.8154 11.7757 20.5604 13.1286 20.5761 14.4919C20.5761 15.0358 20.3601 15.5574 19.9755 15.942C19.5909 16.3266 19.0692 16.5426 18.5253 16.5426C17.9814 16.5426 17.4598 16.3266 17.0752 15.942C16.6906 15.5574 16.4746 15.0358 16.4746 14.4919C16.456 12.5881 16.815 10.6996 17.5307 8.93543C18.2463 7.17125 19.3046 5.56641 20.6442 4.21367C21.9838 2.86092 23.5783 1.7871 25.3354 1.05426C27.0925 0.321417 28.9775 -0.0559082 30.8813 -0.0559082C32.7851 -0.0559082 34.6701 0.321417 36.4272 1.05426C38.1843 1.7871 39.7788 2.86092 41.1184 4.21367C42.458 5.56641 43.5163 7.17125 44.2319 8.93543C44.9476 10.6996 45.3066 12.5881 45.288 14.4919C45.288 15.0358 45.072 15.5574 44.6874 15.942C44.3028 16.3266 43.7812 16.5426 43.2373 16.5426Z" fill="#21407E"/>
</g>
<defs>
<clipPath id="clip0_146_4782">
<rect width="53.5254" height="70" fill="white" transform="translate(0 0.0844727)"/>
</clipPath>
</defs>
</svg>
