<svg width="70" height="71" viewBox="0 0 70 71" fill="none" xmlns="http://www.w3.org/2000/svg">
<path d="M59.6458 12.1564C51.9867 8.35327 43.5514 6.37427 35 6.37427C26.4486 6.37427 18.0133 8.35327 10.3542 12.1564C9.87317 12.3987 9.46867 12.7696 9.18553 13.2278C8.90238 13.6859 8.75163 14.2136 8.75 14.7522V49.7522C8.75163 50.2908 8.90238 50.8185 9.18553 51.2766C9.46867 51.7348 9.87317 52.1057 10.3542 52.348L33.6875 64.0147C34.0946 64.2198 34.5441 64.3267 35 64.3267C35.4559 64.3267 35.9054 64.2198 36.3125 64.0147L59.6458 52.348C60.1268 52.1057 60.5313 51.7348 60.8145 51.2766C61.0976 50.8185 61.2484 50.2908 61.25 49.7522V14.7522C61.2484 14.2136 61.0976 13.6859 60.8145 13.2278C60.5313 12.7696 60.1268 12.3987 59.6458 12.1564ZM55.4167 47.9439L35 58.1522L14.5833 47.9439V16.5897C20.9994 13.6906 27.9593 12.1912 35 12.1912C42.0407 12.1912 49.0006 13.6906 55.4167 16.5897V47.9439Z" fill="#3C62E9"/>
<path d="M24.9375 32.748C24.2971 32.4045 23.5515 32.3124 22.8467 32.4898C22.142 32.6672 21.5289 33.1013 21.1275 33.7071C20.726 34.3129 20.5652 35.0468 20.6765 35.7649C20.7878 36.4831 21.1632 37.1338 21.7291 37.5897L30.4791 43.423C30.947 43.7556 31.5093 43.9294 32.0833 43.9188C32.4671 43.9211 32.8477 43.8475 33.203 43.7023C33.5584 43.5572 33.8816 43.3433 34.1541 43.073L48.7375 28.4897C49.2867 27.9404 49.5952 27.1955 49.5952 26.4188C49.5952 25.6421 49.2867 24.8972 48.7375 24.348C48.1882 23.7988 47.4433 23.4902 46.6666 23.4902C45.8899 23.4902 45.145 23.7988 44.5958 24.348L31.7041 37.2397L24.9375 32.748Z" fill="#3C62E9"/>
</svg>
